<?xml version="1.0" encoding="utf-8"?>
<!-- Generator: Adobe Illustrator 22.1.0, SVG Export Plug-In . SVG Version: 6.00 Build 0)  -->
<svg version="1.1" id="_x32_" xmlns="http://www.w3.org/2000/svg" xmlns:xlink="http://www.w3.org/1999/xlink" x="0px" y="0px"
	 viewBox="0 0 577.969 720" style="enable-background:new 0 0 577.969 720;" xml:space="preserve">
<g>
	<g>
		<path d="M397.962,177.503c-6.357-6.316-12.192-16.415-16.278,0s-2.918,21.661-10.507,12.335
			c-7.585-9.325-8.171-10.849-15.756-16.79c-7.589-5.941-8.929-5.253-11.177,10.722c-2.248,15.977,0.843,11.897-11.498,14.228
			c-12.344,2.332-8.841,10.493-14.68,0c-5.835-10.491-5.835-10.491-9.335-19.234c-3.503-8.742-11.092-6.994-11.092-6.994
			s5.243,17.59-3.798,12c-9.041-5.588-19.544-2.353-15.222-19.822c4.319-17.47,24.283-57.925,40.401-69.342
			c16.119-11.417,19.016-19.003,25.224-9.098C350.449,95.412,398.483,140.105,397.962,177.503z"/>
		<path d="M275.337,159.337c3.784,19.717,1.293,25.371-6.292,22.107c-7.589-3.262-8.757-10.153-12.842,2.326
			c-4.085,12.48-7.585,20.057-12.839,13.063c-5.253-6.996-12.585-20.858-16.924-17.414c0,0-14.795-3.57-17.32,7.504
			c-2.525,11.074-8.486,9.909-10.466,4.08c-1.98-5.828-0.156-17.339-6.028-11.584c-5.873,5.757-14.528,11.035-16.149,0
			c-1.618-11.033,2.518-35.681,12.114-53.789c9.596-18.11,32.284-47.7,34.776-54.111c2.488-6.412,20.952,9.705,34.772,31.956
			C271.962,125.725,273.042,147.381,275.337,159.337z"/>
		<path d="M376.215,130.452c-1.736-2.797-3.72-5.491-5.71-8.054c-2.857-3.566-8.652-10.225-14.839-15.69
			c-6.147-5.508-12.439-9.965-14.778-10.744c-6.218-2.228-13.282-8.216-7.511-15.35c4.742-5.846,13.126,0.11,15.235,4.907
			c0.711,1.545,6.428,7.254,12.152,13.984c5.781,6.688,11.38,14.48,13.807,18.487c1.3,2.101,2.512,4.168,3.72,5.963
			c1.117,1.861,2.19,3.483,3.158,4.741c1.3,1.836,9.579,14.48,14.721,31.827c2.637,8.576,4.783,18.141,5.964,27.463
			c1.222,9.318,1.411,18.37,1.046,25.814c-0.873,14.652-2.904,22.868-4.014,27.935c-1.11,5.094-1.723,7.023-2.109,8.98
			c-2.173,7.929-15.377,6.193-9.18-3.857c1.432-2.51,2.532-4.354,4.069-8.779c1.415-4.438,3.578-11.464,4.685-24.676
			c0.514-7.046,0.481-15.654-0.569-24.594c-1.015-8.939-2.979-18.183-5.466-26.558C385.8,145.466,377.839,133.021,376.215,130.452z"
			/>
		<path d="M288.917,127.784c1.655-2.855,3.283-5.777,5.182-8.409c1.293-1.878,3.056-4.743,5.456-7.673
			c1.164-1.503,2.393-3.095,3.652-4.719c1.327-1.553,2.681-3.137,4.011-4.695c5.334-6.228,10.527-11.77,11.772-13.758
			c3.402-5.441,10.429-11.376,14.213-6.565c3.111,3.948-3.645,10.472-7.748,12.345c-1.371,0.614-7.111,5.338-13.038,10.885
			c-2.928,2.804-5.998,5.748-8.469,8.578c-1.259,1.396-2.498,2.669-3.503,3.865c-0.978,1.219-1.831,2.283-2.512,3.128
			c-3.016,3.468-5.189,7.224-6.536,9.835c-0.992,1.841-7.741,14.137-10.733,30.622c-3.134,16.425-2.366,36.293-0.288,49.951
			c0.2,1.687,0.389,3.284,0.569,4.795c0.274,1.501,0.531,2.917,0.775,4.254c0.494,2.67,0.931,5.027,1.317,7.112
			c0.396,2.082,0.741,3.894,1.043,5.48c0.396,1.568,0.734,2.914,1.029,4.082c1.205,4.658,1.763,6.434,2.285,8.179
			c2.095,6.994-5.47,12.788-6.583,0.886c-0.359-5.767-1.351-8.275-4.779-34.271c-1.862-13.831-2.535-34.03,0.795-51.122
			C280.082,143.428,287.228,130.285,288.917,127.784z"/>
		<path d="M274,138.888c0.596,2.228,1.083,4.508,1.584,6.723c0.789,3.101,1.99,9.144,2.979,14.845
			c0.999,5.699,1.726,11.057,2.373,12.663c1.814,4.356,1.307,11.12-4.773,10.631c-5.043-0.384-5.155-6.708-3.845-9.751
			c0.416-0.992,0.775-6.179,0.586-11.895c-0.118-5.714-0.677-11.955-1.039-15.004c-0.162-1.614-0.359-3.179-0.589-4.592
			c-0.294-1.396-0.616-2.64-0.951-3.627c-0.494-1.432-2.796-10.966-7.389-21.823c-4.485-10.903-11.857-22.701-18.383-29.786
			c-6.292-7.092-10.818-10.116-13.519-12.005c-2.657-1.984-3.97-2.307-5.057-2.916c-4.4-2.125-2.759-11.262,3.916-5.353
			c0.792,0.695,1.479,1.296,2.288,2.003c0.782,0.739,1.659,1.616,2.928,2.73c2.518,2.228,6.648,5.508,12.747,12.68
			c6.631,7.557,14.108,19.788,18.654,31.114C271.184,126.808,273.472,136.809,274,138.888z"/>
		<path d="M179.384,137.23c1.513-3.979,3.27-7.898,4.905-11.743c2.298-5.414,7.25-15.577,12.219-24.889
			c4.938-9.33,9.698-17.899,10.53-20.862c2.366-8.082,9.305-17.402,17.181-11.628c6.468,4.792-0.074,15.222-5.114,18.463
			c-1.642,1.097-7.636,8.611-13.692,17.186c-6.076,8.564-12.107,18.303-14.842,23.203c-2.999,5.106-5.392,10.182-6.448,13.832
			c-0.423,1.32-2.237,6.147-4.143,13.34c-0.423,1.808-0.992,3.737-1.398,5.818c-0.362,2.086-0.748,4.291-1.151,6.598
			c-0.2,2.321-0.413,4.741-0.63,7.241c-0.074,2.564-0.149,5.211-0.227,7.917c-0.196,10.817,0.176,22.579,1.344,33.764
			c1.141,11.191,3.121,21.779,5.365,30.328c4.525,16.812,9.136,25.63,12.057,30.922c1.439,2.676,2.562,4.45,3.52,5.772
			c0.938,1.33,1.604,2.275,2.264,3.211c5.605,6.947-2.654,19.611-9.43,4.844c-1.445-3.605-2.498-6.211-4.874-11.916
			c-2.254-5.721-6.211-14.48-10.327-31.14c-2.136-8.889-4.021-19.79-5.07-31.263c-1.076-11.471-1.361-23.49-1.073-34.584
			c0.102-2.77,0.2-5.488,0.298-8.126c0.261-2.723,0.511-5.365,0.755-7.905c0.46-2.493,0.9-4.885,1.32-7.154
			c0.498-2.246,1.1-4.329,1.598-6.292c1.012-3.923,2.258-7.131,3.046-9.71C178.331,139.956,179.025,138.16,179.384,137.23z"/>
		<path d="M145.986,339.267c2.078-3.166,4.187-6.374,6.238-9.495c2.853-4.406,8.625-12.688,14.186-20.309
			c5.524-7.65,10.74-14.721,11.742-17.36c2.762-7.143,10.594-14.561,17.841-7.09c5.923,6.105-1.09,14.182-6.269,16.199
			c-1.692,0.666-8.039,6.472-14.636,13.207c-6.631,6.705-13.4,14.427-16.711,18.235c-3.51,3.996-6.472,8.055-8.036,11.084
			c-0.552,1.116-2.989,5.04-6.049,10.957c-0.721,1.494-1.496,3.107-2.319,4.817c-0.704,1.744-1.445,3.59-2.22,5.52
			c-1.354,3.838-2.292,8.334-3.253,12.996c-1.723,9.347-1.929,19.765,0.308,29.26c2.132,9.524,6.546,17.929,11.028,24.25
			c4.377,6.264,8.597,10.653,12.009,14.042c3.432,3.382,6.16,5.716,8.269,7.474c4.238,3.494,6.076,4.629,7.768,5.84
			c6.99,4.607,1.222,18.933-7.799,8.123c-2.102-2.714-3.706-4.557-7.42-8.61c-1.902-1.959-4.268-4.545-7.487-8.035
			c-1.55-1.812-3.307-3.862-5.304-6.196c-1.841-2.491-4.092-5.118-6.187-8.464c-4.661-6.928-9.403-16.258-11.637-26.836
			c-2.346-10.548-2.014-21.954-0.068-31.956c1.063-4.979,2.095-9.717,3.713-14.189c0.856-2.136,1.709-4.166,2.539-6.076
			c0.917-1.847,1.787-3.595,2.596-5.226C142.269,345.054,145.062,340.792,145.986,339.267z"/>
		<path d="M437.233,475.325c-14.541,11.098-29.695,16.001-40.591,17.682c-11.035,1.658-17.909,0.159-19.05-0.886
			c-0.596-0.58,0.183-1.239,2.393-1.947c1.107-0.355,2.569-0.722,4.4-1.094c1.824-0.49,4.004-1.129,6.57-1.744
			c2.552-0.69,5.439-1.722,8.723-2.752c3.202-1.34,6.875-2.547,10.716-4.533c7.758-3.696,16.789-8.963,26.111-16.951
			c18.928-16.369,30.48-36.183,36.644-56.301c6.384-20.132,7.809-40.872,3.466-61.486c-4.37-20.561-14.744-41.057-32.295-58.975
			c-8.757-8.878-19.693-16.668-32.647-22.432c-6.424-3.012-13.478-5.14-20.847-6.989c-7.436-1.568-15.252-2.76-23.436-2.973
			c-32.731-0.984-65.066,10.182-89.173,29.928c-24.151,19.733-38.878,48.929-39.349,77.83c-0.227,14.407,0.87,28.778,4.201,42.151
			c3.236,13.357,7.785,26.169,14.775,37.086c6.817,10.981,15.272,20.373,24.818,27.722c9.785,7.038,20.336,12.1,31.018,15.396
			c2.603,0.798,5.226,1.239,7.69,1.869c2.498,0.493,4.827,1.361,7.203,1.53c4.702,0.536,8.993,1.405,12.95,1.683
			c3.967,0.198,7.538,0.434,10.699,0.698c3.161,0.297,5.91,0.069,8.225,0.228c9.247,0.33,11.62,1.606,5.26,3.495
			c-1.591,0.472-3.73,0.982-6.445,1.525c-1.364,0.254-2.867,0.532-4.509,0.837c-1.652,0.235-3.466,0.281-5.426,0.417
			c-1.967,0.096-4.079,0.201-6.34,0.313c-1.134,0.042-2.305,0.088-3.517,0.134c-1.208-0.083-2.454-0.169-3.74-0.257
			c-2.576-0.205-5.307-0.423-8.191-0.652c-0.724-0.063-1.455-0.127-2.197-0.191c-0.731-0.145-1.472-0.292-2.224-0.441
			c-1.503-0.306-3.046-0.62-4.624-0.943c-12.541-2.583-27.766-7.868-42.212-19.371c-14.429-11.348-27.427-28.919-35.165-51.176
			c-3.662-12.032-6.14-22.964-7.03-33.127c-0.264-2.534-0.521-5.01-0.772-7.435c-0.244-2.425-0.169-4.814-0.267-7.149
			c-0.068-4.68-0.403-9.14-0.014-13.58c0.775-17.677,5.301-33.136,13.258-48.161c4.177-7.408,9.163-14.769,15.58-21.91
			c6.492-7.055,14.277-13.967,23.87-20.307c9.589-6.325,20.993-12.085,34.566-16.42c3.385-1.088,6.946-1.969,10.584-2.916
			c3.7-0.691,7.457-1.685,11.42-2.119c7.866-1.301,16.318-1.634,25.23-1.428c14.24,0.565,28.199,3.294,41.176,8.191
			c12.981,4.89,24.828,12.166,34.975,21.027c10.104,8.9,18.738,19.085,25.562,30.276c6.793,11.192,11.813,23.28,14.842,35.711
			c5.903,24.969,3.605,50.843-4.779,73.708C471.186,441.181,456.15,461.206,437.233,475.325z"/>
		<path d="M420.975,452.714c-20.81,14.312-47.926,21.485-74.226,19.063c-13.126-1.298-26.036-4.935-37.412-11.126
			c-11.505-5.97-21.169-14.603-28.93-23.921c-7.775-9.374-13.661-19.75-17.476-30.18c-3.791-10.455-5.632-20.889-5.998-30.497
			c-0.379-9.624,0.694-18.401,2.298-25.929c0.707-3.793,1.868-7.21,2.66-10.425c1.032-3.144,2.112-5.975,2.999-8.544
			c3.977-10.1,10.337-20.865,18.769-29.787c8.337-8.99,18.481-16.156,28.223-20.573c9.728-4.494,18.962-6.171,25.176-6.184
			c3.09-0.201,5.49,0.365,6.919,0.691c1.439,0.407,1.95,0.925,1.428,1.563c-0.853,1.1-5.355,1.776-11.789,3.504
			c-6.418,1.798-14.734,4.905-22.993,9.793c-8.286,4.83-16.339,11.527-22.841,18.773c-6.567,7.209-11.522,14.971-14.761,21.283
			c-0.853,1.56-1.973,3.614-2.985,6.265c-0.542,1.31-1.131,2.736-1.767,4.269c-0.575,1.557-1.053,3.272-1.635,5.07
			c-2.295,7.188-4.19,16.425-4.414,27.029c-0.291,10.585,1.459,22.562,5.934,34.469c4.505,11.868,11.755,23.652,21.483,33.592
			c4.834,4.972,10.168,9.585,16.159,13.293c5.9,3.815,12.284,6.957,18.941,9.191c6.621,2.326,13.468,3.931,20.312,4.685
			c3.405,0.534,6.834,0.563,10.209,0.779c3.385-0.056,6.739,0.041,10.036-0.299c13.235-0.857,25.515-4.307,35.984-8.769
			c10.513-4.443,19.08-10.241,25.616-15.724c13.143-10.915,23.785-26.211,28.449-43.523c2.38-8.63,3.287-17.611,2.948-26.549
			c-0.213-4.477-0.244-8.954-0.955-13.342c-0.274-2.201-0.545-4.394-0.819-6.58c-0.457-2.153-0.914-4.298-1.367-6.433
			c-1.709-8.579-4.834-16.611-8.262-24.181c-3.957-7.29-8.181-14.263-13.607-19.819c-10.439-11.493-23.321-18.599-35.104-22.036
			c-23.778-6.842-43.018-4.492-45.786-6.189c-1.418-0.647,1.239-1.617,9.44-2.774c2.044-0.377,4.458-0.419,7.237-0.451
			c1.388-0.015,2.87-0.03,4.444-0.046c1.574-0.027,3.243-0.032,4.999,0.22c7.007,0.681,15.695,1.763,25.342,5.638
			c4.952,1.572,9.224,4.278,13.536,6.411c1.994,1.366,3.953,2.708,5.879,4.029c0.948,0.683,1.953,1.269,2.826,2.018
			c0.86,0.761,1.716,1.514,2.566,2.263c1.672,1.521,3.412,2.926,4.959,4.481c1.455,1.639,2.894,3.255,4.316,4.852
			c0.701,0.805,1.432,1.577,2.095,2.395l1.801,2.572c1.195,1.704,2.373,3.39,3.541,5.06c8.625,13.848,12.991,28.452,15.242,43.518
			c0.376,3.796,1.07,7.602,1.195,11.495c0.088,3.899,0.42,7.822,0.311,11.88c-0.024,8.136-1.425,16.601-4.085,25.205
			C452.657,421.303,440.909,439.213,420.975,452.714z"/>
		<path d="M373.229,645.555c-2.674,1.435-6.824,0.63-10.05,0.7c-3.256,0.088-5.497,1.643-4.989,1.883
			c0.501,0.135,0.843,2.978,3.97,3.516c3.036,0.472,5.514,0.968,7.061,1.44c1.533,0.387,0.839-0.524,5.064-1.503
			c4.278-1.246,3.629-4.531,2.39-4.626C375.395,646.843,373.229,645.555,373.229,645.555z"/>
		<path d="M403.774,551.383c2.19,2.067,4.004,5.077,4.955,8.78c0.965,3.696,1.188,7.952,0.863,12.333
			c-0.704,8.814-3.453,17.98-6.045,26.277c-2.64,8.312-4.451,14.314-5.267,18.056c-0.85,3.729-0.66,5.226,0.061,4.067
			c0.701-1.164,2.63-2.383,5.121-4.981c2.481-2.588,5.582-6.566,8.13-13.111c5.091-13.045,7.853-24.161,8.97-31.148
			c0.562-3.489,0.25-4.55-0.382-7.295c-0.335-1.371-0.748-3.191-1.621-5.941c-0.894-2.714-2.095-6.534-5.355-11.158
			c-3.304-4.628-7.369-7.029-10.479-8.153c-3.155-1.164-5.521-1.247-7.034-0.994c-3.016,0.487-2.803,2.114-0.487,3.362
			c2.352,1.271,5.047,3.619,6.495,5.87c0.819,1.031,1.232,2.162,1.628,2.824C403.605,550.924,403.774,551.383,403.774,551.383z"/>
		<path d="M352.325,530.729c-5.257-0.289-11.106-0.712-17.422-0.556c-6.282,0.188-13.174,0.842-19.815,3.663
			c-3.3,1.384-6.374,3.024-9.339,5.447c-2.87,2.319-5.761,5.938-6.221,10.564c-0.399,4.668,1.794,8.591,4.092,11.398
			c2.39,2.841,5.135,4.961,7.904,6.747c11.241,6.879,20.468,7.851,25.684,8.038c5.307-0.008,6.82-0.897,4.966-0.862
			c-1.865-0.042-4.627-0.832-8.899-2.452c-4.238-1.665-10.175-4.014-17.706-8.632c-3.683-2.366-6.908-5.148-8.726-8.226
			c-0.911-1.521-1.435-3.083-1.472-4.514c-0.024-1.435,0.44-2.74,1.158-3.916c1.493-2.361,3.94-4.089,6.242-5.339
			c1.107-0.683,2.336-1.132,3.378-1.641c1.083-0.379,2.085-0.73,3.009-1.053c3.818-0.943,4.861-1.332,7.951-2.072
			c3.09-0.656,8.316-1.771,21.047-0.806c12.727,1.109,20.641,1.056,24.218,0.218c3.588-0.762,2.924-1.692-0.711-2.074
			c-3.645-0.426-8.459-1.415-12.375-2.309C355.354,531.435,352.325,530.729,352.325,530.729z"/>
		<path d="M307.114,571.648c-2.44,2.343-5.091,5.809-5.446,10.317c-0.42,4.496,1.439,8.796,3.967,12.049
			c2.657,3.48,6.394,5.922,10.134,7.445c3.764,1.538,7.582,2.283,11.17,2.601c7.189,0.551,12.06-0.483,14.873-1.246
			c2.816-0.815,3.612-1.492,2.593-1.428c-2.044,0.007-6.309-1.766-16.105-2.696c-4.888-0.593-9.163-1.878-12.195-3.707
			c-3.077-1.812-4.779-3.999-5.646-5.735c-0.863-1.82-1.178-2.192-1.906-3.453c-0.332-0.632-0.745-1.499-0.809-2.863
			c-0.095-1.345,0.25-3.277,2.166-5.485c1.956-2.17,4.197-3.5,5.89-4.565c1.743-1.017,3.057-1.783,3.889-2.361
			c1.676-1.197,1.303-2.054-0.863-1.923c-2.119,0.166-5.043,0.551-7.457,1.298C308.965,570.622,307.114,571.648,307.114,571.648z"/>
		<path d="M304.189,602.763c-0.883,2.824-1.29,5.916-1.127,9.184c0.186,3.252,0.985,6.75,3.006,10.016
			c0.406,0.776,1.354,1.758,2.061,2.442c0.755,0.593,1.543,1.279,2.298,1.694c1.537,0.98,3.063,1.71,4.586,2.339
			c3.04,1.264,6.049,2.146,8.943,2.774c11.579,2.336,16.589,0.164,14.842,0.007c-1.723-0.294-4.715-3.108-12.869-5.169
			c-8.08-2.023-14.463-5.75-14.572-8.295c-0.47-1.472-0.704-1.832-1.32-2.988c-0.399-1.134-1.655-3.433-0.552-8.505
			c1.33-4.983,3.358-6.485,4.539-7.628c1.229-1.072,1.202-1.994-0.839-1.939c-1.953,0.137-4.627,1.354-6.296,2.976
			C305.157,601.231,304.189,602.763,304.189,602.763z"/>
		<path d="M313.071,639.217c8.191,8.425,22.898,13.275,35.077,13.739c6.116,0.23,10.388-0.723,12.822-1.514
			c2.444-0.859,3.097-1.516,2.217-1.455c-1.811,0.084-5.426-1.866-13.986-2.459c-8.638-0.727-15.218-3.115-18.593-5.043
			c-1.747-0.889-2.22-1.068-3.706-1.442c-0.758-0.171-1.682-0.514-3.026-1.187c-0.687-0.321-1.499-0.701-2.312-1.325
			c-0.836-0.597-1.885-1.232-2.786-2.246c-3.835-3.805-5.125-6.757-6.289-8.169c-1.185-1.405-2.055-1.146-1.94,0.757
			c-0.047,1.898,0.42,4.46,1.022,6.634C312.36,637.527,313.017,639.286,313.071,639.217z"/>
		<path d="M363.904,498.797c0.609,3.93-0.609,9.477,0,14.099c0.609,4.621,3.056,6.47,3.056,5.777c0-0.695,2.444-2.081,2.444-5.547
			c0-3.467,0.613-6.238,1.222-7.856c0.613-1.621-0.609-0.926-0.609-5.779c0-4.854-3.056-5.779-3.666-4.391
			C365.739,496.486,363.904,498.797,363.904,498.797z"/>
		<path d="M335.83,499.456c0.609,4.535-0.613,10.935,0,16.268c0.609,5.332,3.053,7.465,3.053,6.666c0-0.801,2.447-2.4,2.447-6.401
			c0-3.999,0.609-7.198,1.219-9.066c0.613-1.868-0.609-1.066-0.609-6.666s-3.056-6.666-3.666-5.067
			C337.661,496.789,335.83,499.456,335.83,499.456z"/>
		<path d="M363.904,651.477c0.609,5.387-0.609,12.991,0,19.327c0.609,6.336,3.056,8.872,3.056,7.922
			c0-0.953,2.444-2.853,2.444-7.606s0.613-8.552,1.222-10.771c0.613-2.219-0.609-1.268-0.609-7.92c0-6.654-3.056-7.922-3.666-6.02
			C365.739,648.308,363.904,651.477,363.904,651.477z"/>
		<path d="M335.83,663.447c0.152,3.475,0.19,7.307,0.169,11.354c-0.02,2.025-0.041,4.104-0.064,6.22l-0.024,1.592l0.115,1.837
			c0.112,1.234,0.081,2.481,0.481,3.723c0.988,4.971,4.177,10.001,9.098,12.605c1.151,0.774,2.556,1.046,3.852,1.491
			c1.337,0.294,2.752,0.399,4.106,0.409c2.735-0.21,5.463-0.957,7.572-2.483c0.528-0.372,1.046-0.737,1.557-1.094
			c0.464-0.399,0.839-0.865,1.239-1.288c0.789-0.864,1.547-1.683,1.987-2.62c0.494-0.903,1.002-1.754,1.364-2.594
			c0.261-0.864,0.511-1.685,0.748-2.469c0.545-1.545,0.514-2.973,0.636-4.203c0.118-1.234,0.118-2.29-0.044-3.188
			c-0.457-3.575-1.012-4.538-1.09-3.319c-0.037,0.619-0.24,1.388-0.535,2.363c-0.278,0.974-0.63,2.162-1.313,3.538
			c-0.284,0.688-0.596,1.442-0.938,2.27c-0.46,0.767-0.934,1.59-1.408,2.49c-0.43,0.933-1.256,1.67-1.868,2.642
			c-0.305,0.494-0.826,0.798-1.232,1.242c-0.44,0.412-0.843,0.911-1.418,1.192c-2.034,1.584-4.559,2.006-6.743,1.678
			c-1.131-0.019-2.116-0.588-3.094-0.896c-0.85-0.632-1.811-0.985-2.43-1.77c-2.85-2.696-3.524-6.108-3.744-8.414
			c0.132-2.439-0.156-3.002-0.335-5.348c-0.23-2.248-0.535-5.924-0.535-14.507c0-17.164-3.056-20.432-3.666-15.528
			C337.661,655.273,335.83,663.447,335.83,663.447z"/>
		<path d="M476.118,539.36c-3.256-5.084-6.238-10.329-9.075-15.578c-3.053-5.131-5.578-10.501-8.604-15.375
			c-1.452-2.478-2.88-4.913-4.278-7.293c-1.462-2.341-3.026-4.541-4.522-6.688c-1.523-2.128-2.996-4.195-4.563-6.066
			c-1.618-1.83-3.243-3.531-4.878-5.067c-6.55-6.151-8.181-3.161-7.501,2.214c0.345,2.689,1.266,5.976,2.501,9.086
			c1.235,3.113,2.542,6.243,4.109,8.368c3.195,4.215,7.101,10.503,11.288,17.23c1.943,3.455,3.947,7.023,5.923,10.535
			c1.787,3.607,3.547,7.156,5.186,10.469c3.097,6.607,15.249,33.411,19.321,61.929c0.691,3.521,1.063,7.075,1.405,10.584
			c0.342,3.509,0.85,6.962,0.873,10.351c0.132,3.382,0.264,6.676,0.386,9.838c-0.091,3.159-0.183,6.186-0.267,9.039
			c-0.504,11.404-1.865,19.934-2.505,22.993c-0.328,1.53-0.613,4.435-1.479,8.262c-0.457,1.908-0.975,4.065-1.543,6.431
			c-0.284,1.186-0.579,2.424-0.883,3.71c-0.179,0.679,0.01,0.245-0.257,0.794c-0.294,0.578-0.596,1.164-0.9,1.761
			c-2.515,4.7-5.9,9.57-10.503,13.53c-4.57,3.987-10.442,6.918-17.029,8.424c-13.563,3.144-28.324,1.871-39.376-2.981
			c-11.136-4.748-18.63-11.779-21.859-16.155c-3.283-4.378-6.191-7.82-8.814-10.528c-1.276-1.372-2.596-2.469-3.781-3.401
			c-1.141-0.958-2.251-1.685-3.273-2.185c-4.099-2.026-6.78-0.372-4.674,4.954c0.477,1.344,1.388,3.057,2.545,5.092
			c1.076,2.082,2.637,4.329,4.363,6.774c3.564,4.785,8.245,10.089,13.698,14.351c5.416,4.288,11.322,7.716,16.355,9.923
			c2.522,1.08,4.82,1.863,6.644,2.556c1.882,0.526,3.31,0.924,4.146,1.158c0.42,0.103,1.097,0.269,1.997,0.49
			c0.917,0.128,2.065,0.291,3.412,0.48c2.677,0.453,6.204,0.586,10.236,0.632c2.021-0.112,4.177-0.125,6.418-0.345
			c2.234-0.326,4.586-0.505,6.959-0.995c4.725-0.933,9.813-2.155,14.605-4.369c4.79-2.18,9.257-5.179,12.94-8.684
			c3.676-3.519,6.651-7.418,8.926-11.223c1.147-1.898,2.17-3.75,3.04-5.529c0.23-0.456,0.454-0.906,0.674-1.347
			c0.19-0.478,0.254-0.974,0.376-1.41c0.22-0.891,0.433-1.748,0.636-2.567c0.826-3.274,1.571-5.927,2.2-7.739
			c1.191-3.637,2.224-9.152,3.368-15.571c0.335-3.243,0.694-6.717,1.063-10.312c0.45-3.592,0.274-7.345,0.423-11.093
			c0.132-15.017-1.709-30.222-3.405-38.759c-0.369-2.146-0.657-4.582-0.911-7.224c-0.399-2.611-0.762-5.429-1.097-8.373
			c-0.504-5.929-1.689-12.157-2.532-18.269c-1.141-6.009-2.332-11.794-3.615-16.526C478.599,544.984,477.279,541.284,476.118,539.36
			z"/>
		<path d="M438.035,629.521c-6.567-7.105-15.678-15.293-24.086-20.032c-4.204-2.339-7.406-3.35-9.593-3.786
			c-2.146-0.445-3.331-0.176-2.786,0.319c0.982,0.899,0.63,6.103,6.797,10.481c6.072,4.252,10.226,8.339,12.121,11.147
			c0.985,1.379,1.428,1.491,2.65,2.001c1.151,0.532,3.189,1.455,6.15,4.885c2.792,3.416,4.671,5.103,6.374,5.959
			c1.723,0.815,3.141,0.387,3.1-1.298c0.058-1.67-0.027-4.024-0.22-6.066c-0.135-1.012-0.254-1.91-0.338-2.556
			C438.12,629.897,438.035,629.521,438.035,629.521z"/>
		<path d="M139.663,499.856c-11.397,19.461-14.897,44.903-22.827,68.681c-8.245,24.925-13.008,51.895-14.92,76.24
			c-1.885,24.362-1.662,41.314-1.442,51.367c0.271,10.043,1.019,13.17,1.361,9.549c0.338-3.624,1.896-8.956,3.696-17.934
			c1.831-8.975,3.764-21.605,5.527-39.614c1.794-18.007,4.438-34.03,7.741-47.394c3.232-13.415,6.986-24.043,10.009-31.956
			c3.053-8.207,3.341-10.682,4.658-17.272c0.646-3.284,1.472-7.614,3.019-14.089c1.638-6.406,3.689-15.228,8.838-26.164
			c2.586-5.299,5.646-9.918,8.415-14.133c2.779-4.209,5.29-8.02,7.308-11.503c4.096-6.943,6.055-12.577,6.682-16.192
			c0.626-3.642,0.217-5.248-0.464-5.086c-0.762,0.14-1.75,2.016-3.371,5.162c-3.212,6.36-9.474,13.553-14.822,19.418
			c-2.66,2.941-5.05,5.627-6.729,7.633C140.651,498.562,139.663,499.856,139.663,499.856z"/>
		<path d="M350.02,412.16c21.416,5.268,26.314-82.693-7.389-81.968c-15.97,0.343-21.145,20.691-21.145,42.426
			c0,37.13,28.192,57.545,37.798,31.611"/>
		<path d="M226.355,431.582c-0.802,2.305-4.285,3.756-6.712,5.282c-2.447,1.579-3.469,3.685-2.972,3.642
			c0.443-0.123,2.004,1.814,4.654,0.757c2.542-1.065,4.658-1.913,6.069-2.393c1.334-0.576,0.457-0.715,3.019-3.957
			c1.222-1.756,1.036-3.292,0.521-3.994c-0.504-0.727-1.303-0.818-1.706-0.47c-0.389,0.37-1.141,0.706-1.74,0.892
			C226.846,431.521,226.355,431.582,226.355,431.582z"/>
		<path d="M204.916,425.029c-1.483,2.366-5.717,3.309-8.966,5.175c-3.331,1.942-3.879,4.574-3.331,4.305
			c0.542-0.25,2.383,1.19,4.986,0.11c2.627-1.088,4.999-1.623,6.533-1.91c1.493-0.39,0.589-0.639,4.025-3.536
			c1.686-1.585,1.882-3.193,1.587-4.034c-0.288-0.865-1.039-1.151-1.55-0.855c-0.504,0.321-1.357,0.553-2.038,0.659
			C205.461,425.039,204.916,425.029,204.916,425.029z"/>
		<path d="M180.931,421.046c-1.879,2.839-6.201,4.386-9.714,6.396c-3.541,2.097-4.39,4.658-3.781,4.423
			c0.589-0.252,2.539,1.249,5.494-0.032c2.952-1.274,5.534-2.131,7.176-2.62c1.584-0.559,0.623-0.813,4.126-4.046
			c3.314-3.519,1.479-5.834,0.362-5.147C183.419,420.721,180.931,421.046,180.931,421.046z"/>
		<path d="M290.206,430.468c-1.185,0.272-2.684,0.156-4.085-0.012c-0.393-0.069-1.533-0.264-2.261-0.289
			c-0.795-0.049-1.483-0.034-2.007,0.03c-1.757,0.355-3.845,1.151-3.537,1.43c0.176,0.112,0.139,0.723,0.447,1.457
			c0.281,0.722,1.063,1.595,2.356,1.766c1.263,0.159,2.231,0.27,2.992,0.516c0.379,0.117,0.707,0.259,0.985,0.407
			c0.477,0.167,0.782,0.299,1.056,0.439c1.053,0.539,0.63-0.495,3.676-0.509c0.758-0.007,1.364-0.179,1.835-0.441l0.663-0.46
			l0.907-0.401c0.315-0.34,0.42-0.5,0.474-0.979c0.024-0.247-0.044-0.683-0.322-1.021c-0.274-0.343-0.623-0.477-0.833-0.519
			l-0.261-0.03l-0.014,0.008l-0.098,0.059l-0.122,0.127l-0.186,0.264c-0.423,0.718-0.338,1.503,0.078,1.765l0.159,0.112l0.054,0.064
			l-0.081-0.362l-0.102-0.526l0.183-0.1l-0.166-0.336c0.328-0.869,0.051-0.575,0.129-0.641l-0.349-0.297l-0.748-0.683
			C290.575,430.845,290.206,430.468,290.206,430.468z"/>
		<path d="M290.687,429.253c-2.762,0.167-6.485-0.918-9.518-0.358c-3.002,0.554-4.17,2.643-3.73,2.643
			c0.443,0,1.371,2.091,3.622,2.065c2.247-0.022,4.008,0.519,4.993,1.078c0.975,0.583,0.609-0.554,3.588-0.282
			c2.87,0.352,4.014-1.978,3.226-2.691C292.082,431.004,290.687,429.253,290.687,429.253z"/>
		<path d="M290.761,427.396c-2.826,0.433-6.627-1.151-10.033-1.291c-3.432-0.137-5.24,1.604-4.725,1.717
			c0.511,0.101,1.09,2.373,3.669,2.875c2.572,0.497,4.586,1.334,5.778,2.008c1.198,0.646,0.772-0.362,4.546-0.108
			c3.852,0.147,4.431-2.598,3.395-3.071C292.346,429.032,290.761,427.396,290.761,427.396z"/>
		<path d="M161.272,586.697c-1.296,4.93-3.202,10.386-5.091,16.381c-0.917,3.019-1.852,6.157-2.613,9.472
			c-0.768,3.358-1.31,6.715-1.77,10.085c-1.821,13.562-1.422,27.567-0.118,39.844c1.351,12.293,3.158,20.639,4.434,25.645
			c1.276,4.986,2.325,6.541,2.305,4.697c-0.003-3.614,4.045-11.282,2.752-29.713c-0.613-9.179-0.707-17.385-0.227-24.289
			c0.454-6.909,1.472-12.484,2.491-16.493c1.09-4.029,0.982-5.099,1.286-8.273c0.298-3.199,1.12-8.319,5.362-20.607
			c4.309-12.414,4.238-21.119,2.962-24.79c-1.229-3.74-2.843-2.997-3.568,0.499C168.004,576.339,161.272,586.697,161.272,586.697z"
			/>
		<path d="M367.803,302.734c-5.758-5.018-6.489-8.383,2.021-1.126c8.699,7.352,15.557,14.439,28.47,25.489
			c12.94,11.018,25.962,22.327,33.317,29.306c3.588,3.414,4.749,5.522,3.327,4.947c-1.432-0.565-5.348-3.857-12.307-10.944
			c-7.484-7.565-11.671-10.618-25.122-22.393C386.728,318.637,375.284,309.224,367.803,302.734z"/>
		<path d="M432.233,383.213c4.126,3.054,6.966,5.13,6.969,5.958c0.085,0.72-3.185,0.433-9.596-4.278
			c-6.455-4.832-11.322-10.438-17.107-16.302c-5.859-5.806-12.602-12.201-21.416-19.929c-17.689-15.423-35.933-30.712-46.358-40.043
			c-10.138-9.154-6.986-11.231,12.561,8.028c10.534,10.264,16.386,14.383,34.87,30.791c7.389,6.568,14.903,13.251,21.856,19.432
			C420.81,373.275,426.807,379.282,432.233,383.213z"/>
		<path d="M359.48,457.262c6.187,6.287,6.428,10.484-2.732,1.41c-9.383-9.176-16.525-18.051-30.609-31.687
			c-14.111-13.604-28.558-27.269-36.759-35.602c-7.941-8.199-4.769-10.143,10.32,7.087c8.161,9.181,12.903,12.84,27.576,27.347
			C339.022,437.379,351.438,449.139,359.48,457.262z"/>
		<path d="M229.841,338.586c4.658-0.098,7.961,2.907,10.114,7.4c-2.478,9.745-3.801,19.954-3.801,30.47
			c0,2.316,0.074,4.611,0.2,6.892c-6.499,6.69-18.065-4.002-18.065-21.587C218.289,349.89,221.119,338.775,229.841,338.586z"/>
		<path d="M368.098,512.367c0.711,0.176,1.452,0.411,2.197,0.663c0.873,0.297,1.75,0.706,2.542,1.131
			c1.11,0.62,2.742,1.702,3.964,3.527c1.391,1.783,1.662,4.301,1.638,6.83c0.034,3.762,0.078,6.541,0.782,7.584
			c0.927,1.355,1.08,2.757-0.061,3.497c-1.137,0.703-3.612,1.038-8.201,1.058c-3.754-0.029-5.626-1.672-6.113-3.103
			c-0.504-1.469,0.267-2.789,1.54-3.433c0.819-0.438,2.22-3.188,3.341-5.939c0.443-0.931,1.022-1.79,0.867-2.801
			c-0.102-0.955-0.586-1.753-0.961-2.251c-0.728-1.065-2.197-1.717-3.324-1.7c-0.393-0.007-1.818-0.235-3.997-0.37
			c-2.129-0.122-5.243-0.174-8.421-0.235c-3.189-0.02-6.631,0.147-9.65,0.855c-3.063,0.696-5.321,2.035-6.597,3.703
			c-1.3,1.609-1.892,3.355-2.342,4.785c-0.43,1.457-0.674,2.635-0.87,3.59c-0.376,2.069-0.525,2.877-0.667,3.671
			c-0.389,1.893-3.923,1.562-6.201-0.171c-1.185-0.796-2.22-1.749-2.85-2.403c-0.619-0.664-0.823-1.023,0.02-1.552
			c0.819-0.532,1.472-1.023,2.346-2.606c0.45-0.799,0.927-1.881,1.686-3.477c0.789-1.555,1.733-3.75,3.97-6.188
			c2.336-2.696,6.431-4.672,10.202-5.336c3.825-0.754,7.65-0.801,11.099-0.698c1.676,0.078,3.283,0.152,4.773,0.221
			c1.493,0.069,2.914,0.164,4.177,0.284C365.515,511.752,367.424,512.176,368.098,512.367z"/>
	</g>
	<g>
		<path d="M569.403,430.964c-7.924-0.247-19.304,2.965-29.465,1.886c-5.05-0.537-8.465-2.104-10.27-3.355
			c-1.821-1.271-2.18-2.108-1.483-1.944c1.483,0.291,4.752-1.646,11.525-1.315c6.922,0.237,12.514-1.094,15.729-2.099
			c3.26-1.021,1.889,0.505,12.003-0.372c5.098-0.399,8.245,0.514,9.62,1.526c1.388,1.002,1.1,2.101-0.308,2.469
			C573.908,428.442,569.403,430.964,569.403,430.964z"/>
		<path d="M554.821,318.74c-8.658,4.051-20.322,11.564-31.841,14.152c-5.707,1.308-9.985,0.98-12.422,0.446
			c-2.461-0.575-3.175-1.239-2.346-1.323c1.73-0.228,4.674-3.176,12.392-5.304c7.819-2.292,13.546-5.704,16.674-7.964
			c3.101-2.371,2.336-0.106,12.514-5.598c10.077-5.659,13.844-3.803,11.343-1.43C558.649,314.063,554.821,318.74,554.821,318.74z"/>
		<path d="M525.786,208.291c-6.299,6.414-14.985,15.169-23.954,20.152c-8.983,4.925-14.033,3.974-12.673,3.319
			c1.32-0.75,2.518-4.631,8.641-8.567c6.137-4.009,10.307-8.204,12.382-10.915c1.066-1.34,1.499-1.541,2.677-2.196
			c1.144-0.671,3.06-1.812,6.397-5.458c3.236-3.676,5.395-5.574,6.905-6.326c1.547-0.73,2.464-0.12,2.038,1.428
			c-0.372,1.552-0.931,3.676-1.445,5.436C526.236,206.917,525.786,208.291,525.786,208.291z"/>
		<path d="M494.581,127.212c-5.991,6.461-13.323,16.614-21.365,23.211c-8.036,6.573-13.15,6.865-11.962,5.902
			c1.151-1.026,1.56-5.163,7.037-10.329c5.48-5.206,9.098-10.105,10.906-13.18c1.75-3.123,2-0.889,8.699-8.992
			c6.479-8.184,10.486-7.896,9.335-4.949C496.067,121.795,494.581,127.212,494.581,127.212z"/>
		<path d="M409.575,43.637c-2.894,5.414-6.695,13.276-12.27,17.743c-5.544,4.416-9.61,3.519-8.777,2.954
			c0.768-0.666,0.501-4.067,3.865-7.376c3.392-3.379,5.104-6.884,5.686-9.042c0.464-2.214,1.533-0.485,4.353-6.245
			c1.266-2.887,2.562-4.438,3.771-5.103c1.205-0.652,2.254-0.308,2.356,0.783C408.925,39.618,409.575,43.637,409.575,43.637z"/>
		<path d="M285.806,36.334c1.973-6.549,0.359-16.709,0.775-25.232c0.423-8.622,3.425-12.154,3.415-10.832
			c0.01,1.312,2.952,3.794,3.168,10.195c0.223,6.423,1.022,11.615,1.672,14.726c0.342,1.552,0.129,2.001-0.203,3.208
			c-0.349,1.212-0.728,3.169-1.388,7.876c-0.745,4.751-2.667,7.356-4.106,8.138c-1.408,0.815-2.298,0.083-2.193-1.181
			c0.146-1.266-0.112-3.044-0.437-4.438C286.185,37.389,285.806,36.334,285.806,36.334z"/>
		<path d="M186.014,32.627c0.735-5.676-2.105-13.408-3.212-20.148c-1.103-6.806,0.768-10.384,1.103-9.37
			c0.294,1.012,3.764,2.153,5.182,7.329c1.395,5.163,2.948,9.259,4.062,11.704c1.012,2.469-0.271,1.536,0.169,9.26
			c0.122,3.904-1.032,6.193-2.112,7.121c-1.087,0.94-2.163,0.619-2.447-0.436C188.258,35.925,186.014,32.627,186.014,32.627z"/>
		<path d="M107.033,97.413C99.932,92.147,89.222,86.17,81.241,80.15c-7.954-5.983-10.222-10.237-8.878-9.58
			c1.293,0.74,5.507-0.411,12.03,3.767c6.462,4.176,11.864,7.095,15.211,8.481c3.351,1.357,1.232,1.841,10.056,7.582
			c4.421,2.809,6.661,5.076,7.457,6.651c0.789,1.579,0.071,2.439-1.459,2.02C112.598,98.292,107.033,97.413,107.033,97.413z"/>
		<path d="M86.677,197.919c-5.169-3.926-13.705-6.871-20.221-10.011c-6.506-3.12-8.956-6.289-7.839-6.134
			c1.063,0.284,4.102-2.187,9.755-0.183c5.541,2.038,10.046,3.482,12.839,4.085c2.755,0.654,1.131,1.298,8.188,5.346
			c7,4.139,6.309,8.096,3.991,7.511C91.05,197.953,86.677,197.919,86.677,197.919z"/>
		<path d="M61.291,269.668c-2.64-1.878-6.512-3.103-10.733-3.908c-4.217-0.843-8.797-1.401-12.991-2.577
			c-8.503-2.366-10.957-6.527-9.687-6.064c1.29,0.353,4.4-1.665,10.52-0.492c6.194,1.159,11.451,1.349,14.67,1.452
			c1.615,0.035,2.017,0.36,3.131,0.95c1.103,0.691,2.979,1.46,7.352,3.565c4.397,2.201,6.072,4.964,6.37,6.499
			c0.311,1.57-0.643,2.202-1.818,1.705c-1.158-0.553-2.921-0.887-4.309-1.045C62.367,269.632,61.291,269.668,61.291,269.668z"/>
		<path d="M51.454,367.435c-7.819-2.41-19.253-3.191-28.46-5.03c-9.203-1.825-12.893-4.736-11.464-4.712
			c1.411,0.112,4.519-2.74,11.789-1.886c7.227,0.882,13.059,1.197,16.535,1.092c3.463-0.073,1.797,1.028,11.701,3.074
			c9.877,2.087,10.963,6.081,8.002,6.191C56.589,366.278,51.454,367.435,51.454,367.435z"/>
		<path d="M46.644,445.788c-9.41,0.997-22.364,2.708-33.043,1.935c-10.625-0.767-14.853-3.587-13.285-3.619
			c1.581-0.02,4.779-2.995,12.757-2.975c7.968,0.02,14.27-0.85,17.862-1.785c1.807-0.443,2.319-0.33,3.764-0.142
			c1.432,0.152,3.818,0.409,9.149-0.385c5.29-0.848,8.496-0.897,10.239-0.407c1.74,0.509,1.899,1.609,0.447,2.449
			C51.623,442.678,46.644,445.788,46.644,445.788z"/>
		<path d="M65.119,517.623c-4.644,1.971-10.002,4.923-15.743,7.749c-5.734,2.821-11.85,5.486-17.648,7.148
			c-11.637,3.243-17.032,1.514-15.316,1.075c1.706-0.536,4.295-4.229,12.558-7.089c8.276-2.926,14.402-6.419,17.777-8.792
			c3.368-2.427,2.427-0.213,13.445-5.797c11.045-5.682,14.849-3.443,11.999-1.198C69.36,512.962,65.119,517.623,65.119,517.623z"/>
		<path d="M530.433,512.257c7.985,4.307,19.195,9.639,27.295,16.033c8.049,6.399,9.576,11.187,8.354,10.291
			c-1.249-0.874-5.412-0.284-11.647-4.558c-6.259-4.261-11.769-6.85-15.137-7.981c-3.392-1.039-1.273-1.864-10.506-6.487
			c-4.63-2.131-7.095-3.805-8.239-5.03c-1.144-1.298-0.812-2.344,0.843-2.343c1.642-0.049,3.886-0.047,5.734-0.01
			C528.991,512.194,530.433,512.257,530.433,512.257z"/>
	</g>
</g>
</svg>
