<?xml version="1.0" encoding="iso-8859-1"?>
<!-- Generator: Adobe Illustrator 22.1.0, SVG Export Plug-In . SVG Version: 6.00 Build 0)  -->
<svg version="1.1" id="_x31_1" xmlns="http://www.w3.org/2000/svg" xmlns:xlink="http://www.w3.org/1999/xlink" x="0px" y="0px"
	 viewBox="0 0 512 512" style="enable-background:new 0 0 512 512;" xml:space="preserve">
<g>
	<path style="fill:#231815;" d="M88.655,210.636l0.081-0.326l0.176-0.681l0.348-1.363c1.901-7.27,3.812-14.584,5.722-21.897
		c3.897-14.615,7.93-29.215,11.904-43.494c3.978-14.291,7.871-28.258,11.577-41.572c3.671-13.338,7.171-25.968,10.589-37.586
		c0,0,7.061-34.224,12.638-54.362c2.844-10.031,2.392-12.093-1.811-2.873c-4.114,9.25-11.289,29.932-21.054,65.259
		c-9.662,35.365-14.326,50.28-17.228,59.447c-2.894,9.15-4.038,12.454-6.985,24.332c-2.041,8.133-4.581,18.257-7.618,30.364
		c-1.501,6.058-3.125,12.614-4.874,19.665c-0.214,0.881-0.434,1.77-0.653,2.668c-0.088,0.357-0.267,1.072-0.343,1.72
		c-0.079,0.638-0.102,1.244-0.093,1.811c0.041,2.265,0.422,4.178,0.519,5.855c0.055,0.824,0.033,1.567-0.076,2.072
		c-0.117,0.581-0.424,1.301-0.812,2.07c-0.477,0.858-0.953,1.725-1.437,2.597c-0.262,0.488-0.531,1.001-0.784,1.565l-0.367,0.879
		c-0.143,0.369-0.286,0.834-0.393,1.222c-0.2,0.893-0.26,1.844-0.012,2.775c0.198,0.896,0.729,1.96,1.001,2.456
		c0.324,0.607,0.586,1.091,0.624,1.217c0.095,0.224,0.131,0.491,0.048,0.748c-0.579,2.106-2.573,6.287-3.73,9.588l-0.167,0.512
		l-0.486,0.214l-0.136,0.033c0.083-0.043-0.343,0.107-0.755,0.41c-0.819,0.569-1.289,1.496-1.444,2.13l-0.367,1.472
		c-0.488,1.951-0.989,3.962-1.501,6.017c-1.034,4.109-2.113,8.4-3.209,12.766c-12.854,50.858-14.955,71.742-17.521,81.886
		c-2.566,10.139,7.316-16.382,25.108-83.606c0.884-3.371,1.78-6.777,2.692-10.248c0.401-1.541,0.806-3.1,1.214-4.668
		c0.663-0.301,1.262-0.695,1.781-1.266c0.307-0.317,0.519-0.669,0.722-1.072c0.226-0.367,0.386-0.8,0.526-1.255
		c1.434-4.402,2.737-6.077,4.452-11.542c0.238-1.148,0.307-2.37-0.026-3.561c-0.148-0.593-0.367-1.177-0.627-1.749
		c-0.248-0.534-0.384-0.781-0.55-1.103l-0.365-0.71l-0.007-0.016l0.145-0.355c0.136-0.288,0.286-0.596,0.474-0.941l1.355-2.389
		c0.507-0.924,1.058-1.994,1.494-3.287c0.205-0.622,0.41-1.427,0.5-2.158c0.1-0.722,0.131-1.391,0.126-2.001
		c-0.024-2.437-0.383-4.321-0.457-5.848c-0.048-0.746-0.019-1.372,0.05-1.701L88.655,210.636z M84.946,229.429l0.002-0.002
		l-0.001,0.005L84.946,229.429z"/>
	<path style="fill:#231815;" d="M399.704,15.087c-31.655-2.777-66.521-5.217-100.203-7.567c-8.421-0.591-16.766-1.176-24.97-1.751
		c-4.1-0.292-8.166-0.582-12.187-0.87c-2.011-0.145-4.012-0.291-5.998-0.435l-1.489-0.108c-0.16-0.011-0.65-0.057-1.136-0.043
		c-0.467,0.011-0.934,0.061-1.394,0.148c-0.443,0.081-0.948,0.225-1.313,0.359l-0.698,0.249l-1.391,0.497l-1.348,0.478l-0.162,0.03
		l-0.31-0.101l-0.581-0.462c-0.365-0.274-0.757-0.511-1.16-0.722c-0.812-0.417-1.687-0.704-2.582-0.844
		c-0.898-0.143-1.815-0.137-2.709,0.008l-1.591,0.326c-1.294,0.275-1.017,0.216-1.182,0.202l-0.076-0.023l-0.517-0.217l-0.653-0.273
		c-0.31-0.132-0.8-0.31-1.21-0.411c-1.72-0.449-3.564-0.339-5.21,0.293c-0.41,0.158-0.81,0.345-1.191,0.566
		c-0.333,0.181-0.853,0.554-0.958,0.632l-1.122,0.817l-1.115,0.812l-0.555,0.405c-0.243,0.175-0.11,0.069-0.179,0.118L224.25,7.24
		c-0.338-0.193,0.191,0.431-1.365-1.527l-0.824-1.039c-0.079-0.104-0.41-0.516-0.691-0.8c-0.293-0.299-0.605-0.582-0.939-0.836
		c-1.325-1.023-2.961-1.643-4.6-1.771c-1.725-0.152-3.428-0.303-5.11-0.451c0,0-31.86-0.089-50.915-0.753
		c-9.536-0.335-11.208,0.697-2.18,2.441c4.514,0.872,11.704,1.922,21.923,3.068c5.11,0.573,10.977,1.17,17.645,1.781
		c3.335,0.291,6.87,0.599,10.61,0.924c1.87,0.152,3.793,0.309,5.767,0.468l1.491,0.118c0.343,0.025,0.219,0.02,0.331,0.036
		l0.169,0.051l0.307,0.183l0.126,0.129l0.455,0.56l0.972,1.205c0.357,0.423,0.51,0.686,1.236,1.451
		c1.262,1.26,2.935,2.038,4.626,2.255c1.696,0.21,3.435-0.127,4.881-0.94c0.331-0.171,0.77-0.484,0.958-0.617l0.557-0.407
		l1.101-0.805l1.081-0.788l0.305-0.216l0.131-0.066l0.567-0.061c0.143,0.036,0.067,0.001,0.376,0.13l1.165,0.49
		c1.322,0.537,2.759,0.7,4.119,0.512l0.507-0.086l0.3-0.062l0.557-0.114l1.101-0.225l0.319-0.061l0.117-0.006l0.226,0.031
		l0.383,0.204l0.469,0.386c0.243,0.181,0.488,0.354,0.748,0.507c0.515,0.31,1.058,0.56,1.615,0.748
		c1.117,0.369,2.287,0.499,3.414,0.38c0.565-0.057,1.117-0.17,1.644-0.341l0.958-0.322c0.572-0.193,1.129-0.382,1.675-0.568
		c0.505-0.169,1.26-0.435,1.172-0.382l0.148-0.006l0.391,0.037c0.527,0.049,1.043,0.096,1.546,0.143
		c1.008,0.094,1.97,0.186,2.892,0.273c1.842,0.18,3.518,0.344,5.057,0.494c3.076,0.323,5.594,0.587,7.766,0.815
		c8.69,0.946,11.847,1.377,22.976,1.831c22.24,0.908,60.303,3.011,107.833,6.601c23.934,1.807,40.686,2.288,52.641,2.413
		c-2.709,5.567-11.022,33.486-25.115,92.3c-6.523,27.219-10.968,45.186-14.148,57.723c-0.1,0.391-0.198,0.779-0.293,1.16
		l-0.148,0.584l-0.167,0.772c-0.195,1.029-0.269,2.051-0.241,3.042c0.029,0.993,0.162,1.956,0.376,2.873l0.079,0.317l-0.002,0.002
		l-0.002,0.064l0.019,0.824c0.031,1.298,0.06,2.525,0.088,3.685c0.014,0.6,0.027,1.181,0.039,1.748
		c-0.435,0.226-0.853,0.468-1.233,0.742c-0.336,0.236-0.667,0.469-0.993,0.7l-0.493,0.348l-0.319,0.441
		c-0.136,0.75-0.269,1.484-0.4,2.199c-0.036,0.784-0.069,1.548-0.102,2.296l-0.021,0.388l-0.007,0.014l-0.014,0.021l-0.031,0.033
		l-0.038,0.01l-0.014,0.005l-0.16,0.155c-0.51,0.548-0.967,1.124-1.377,1.72c-0.817,1.194-1.434,2.47-1.856,3.79
		c-0.107,0.319-0.202,0.688-0.279,0.977l-0.176,0.703l-0.353,1.41c-0.231,0.946-0.465,1.899-0.705,2.882
		c-0.946,3.94-1.946,8.381-3.29,14.658c-6.589,30.802-18.414,83.446-34.137,149.062c-15.723,65.615-19.008,92.558-22.157,105.701
		c-3.145,13.119,8.242-21.166,29.947-108.45c6.794-27.314,13.776-56.391,20.663-85.438c3.43-14.527,6.856-29.039,10.227-43.318
		c1.679-7.139,3.345-14.222,4.991-21.218c0.824-3.497,1.644-6.975,2.456-10.427l0.608-2.582l0.286-1.191
		c0.067-0.257,0.145-0.512,0.248-0.757c0.195-0.493,0.455-0.96,0.769-1.387l0.245-0.314l0.129-0.15l0.284-0.293l1.956-1.653
		c0.043-1.334,0.081-2.666,0.122-3.99l0.152-0.207l1.165-0.424c0.226-0.126,0.276-0.122,0.631-0.376
		c0.303-0.222,0.589-0.486,0.834-0.772c0.481-0.557,0.777-1.236,0.948-1.93c0.086-0.431,0.107-0.779,0.107-1.174
		c-0.007-0.36-0.031-0.426-0.055-0.653c-0.057-0.443-0.109-0.593-0.162-0.834l-0.152-0.574c-0.212-0.765-0.162-0.45-0.186-0.729
		l-0.076-1.699c-0.05-1.129-0.1-2.256-0.15-3.378l-0.038-0.841c-0.043-0.412,0.031-1.048-0.176-1.522l-0.148-0.519l-0.057-0.248
		l-0.086-0.505c-0.088-0.674-0.062-1.363,0.067-2.025l0.724-3.068c2.042-8.543,4.021-16.826,5.936-24.844
		c3.857-16.037,7.509-31.009,10.984-44.892c0,0,8.235-44.282,13.767-70.687c1.077-5.133,1.638-8.619,1.693-10.269
		c11.2,0.101,18.065-0.1,22.658,0.246C488.126,25.627,463.004,20.638,399.704,15.087z"/>
	<path style="fill:#231815;" d="M396.857,389.868c16.316-69.663,46.958-198.108,50.565-213.264
		c1.927-8.097,3.921-16.294,5.91-24.253c5.603-22.395,23.112-101.11,25.211-106.897c1.398-3.852,2.725-8.743,3.255-12.737
		c1.184,2.018,0.377,2.466,1.631,3.005c1.527,0.661,3.719,2.138,5.712,4.592c1.994,2.454,5.184,1.491,5.582,1.982
		c0.4,0.491,1.729-2.762-0.333-6.519c-2.061-3.756-6.446-6.712-8.109-9.979c0,0-3.123-0.179-4.519-0.672
		c-0.38-0.135-0.833,0.013-1.243,0.345c-0.147-0.049-0.291-0.103-0.462-0.107c-3.192-0.066-6.165,12.165-6.58,18.031
		c-0.272,3.844-19.534,83.052-24.096,105.223c-2.406,11.682-4.864,22.676-6.844,30.087c-2.894,10.837-33.82,140.054-50.769,209.953
		c-16.668,68.753-19.52,85.137-21.044,90.738c-0.96,3.531-1.148,6.658-0.856,8.732c-0.69-0.346-6.78-1.412-18.471-3
		c-8.55-1.16-20.091-2.601-34.697-4.243c-7.306-0.784-15.375-1.651-24.215-2.601c-8.626-0.853-18.007-1.78-28.146-2.782
		l-0.019-0.012c-2.639-1.21-5.296-2.427-8.016-3.671c-2.387-1.06-5.215-1.189-7.749-0.281c-1.215,0.384-2.642,1.355-3.085,1.68
		c-0.948,0.65-0.653,0.441-0.719,0.481c-18.705-1.756-38.115-3.576-57.466-5.393c-19.953-1.787-39.845-3.566-58.881-5.272
		c-3.769,0.017-7.178,0.033-10.556,0.048c-3.454-0.939-6.527-1.775-9.572-2.604c-4.381,0.324-8.211,0.605-11.999,0.884
		c-14.186-1.184-27.412-2.287-39.826-3.323c-6.256-0.546-12.304-1.072-18.169-1.582c-2.932-0.262-5.817-0.522-8.659-0.777
		l-2.122-0.193l-1.015-0.093l-0.081-0.014l-0.281-0.052l0.079-0.222l0.036-0.09l0.031-0.102l0.176-0.653
		c0.462-1.717,0.881-3.271,1.296-4.807c0,0,8.304-41.179,13.876-65.711c2.773-12.199,2.206-14.57-1.782-3.402
		c-1.994,5.584-4.843,14.553-8.559,27.369c-1.858,6.408-3.931,13.779-6.225,22.169c-1.132,4.2-2.332,8.65-3.602,13.357
		c-1.568,5.975-3.221,12.275-4.962,18.912c0.843,0.072,1.825,0.155,2.811,0.238c11.987,1.046,22.274,1.941,31.157,2.716
		c8.064,0.748,14.853,1.379,20.639,1.918c5.782,0.577,10.56,1.055,14.605,1.458c4.169,0.445,7.583,0.81,10.515,1.122
		c4.55-0.207,7.918-0.36,11.199-0.51c-0.312-0.074,0.793,0.241,1.453,0.431c0.734,0.207,1.477,0.417,2.244,0.634
		c1.715,0.467,3.535,0.96,5.574,1.515c2.751-0.052,6.006-0.117,9.986-0.191c0.336-0.01,0.674-0.017,1.339-0.031
		c6.215,0.441,13.378,0.946,21.442,1.518c8.13,0.626,17.168,1.324,27.064,2.089c9.889,0.817,20.635,1.706,32.184,2.661
		c11.854,1.024,24.534,2.12,37.989,3.283c0.767-0.534,1.567-1.091,2.399-1.668c0.557-0.381,1.179-0.839,1.432-0.96
		c0.712-0.369,1.618-0.51,2.494-0.279c0.255,0.067,0.357,0.102,0.722,0.264c0.374,0.167,0.753,0.336,1.136,0.507
		c0.765,0.341,1.546,0.691,2.342,1.046c1.727,0.772,3.518,1.575,5.362,2.399c1.07,0.091,2.651,0.226,4.238,0.36
		c62.69,5.331,88.006,4.39,100.562,5.46c1.495,0.127,2.32,0.152,2.506,0.089c0.062,0.411,0.142,0.778,0.241,1.098
		c-0.227-0.076-0.411-0.156-0.476-0.267c-0.252-0.421-1.052,0.92-1.018,3.213c-1.855-0.573-5.72-0.987-11.943-1.467
		c-9.2-0.71-46.898-2.451-87.86-5.61c-26.862-2.073-211.616-15.989-229.844-17.962c-7.509-0.812-15.098-0.465-15.17,0.462
		c-0.072,0.927-0.143,1.856,15.751,2.849c15.896,0.993,137.138,9.879,233.315,16.597c18.412,1.286,75.216,6.036,85.245,6.811
		c6.314,0.486,9.329,0.532,10.72,0.211c0.135,0.667,0.315,1.363,0.615,2.112c0.497,1.242,1.182,2.457,1.936,3.65
		c-2.089-0.468-5.787-0.825-11.341-1.228c-9.295-0.677-47.368-2.277-88.747-5.284c-27.136-1.97-213.762-15.198-232.176-17.102
		c-7.585-0.781-15.249-0.407-15.315,0.519c-0.069,0.929-0.136,1.858,15.92,2.792c16.056,0.931,138.525,9.364,235.674,15.723
		c18.6,1.217,75.98,5.755,86.112,6.491c6.995,0.509,9.981,0.501,11.189,0.067c0.997,1.444,2.015,2.854,2.865,4.228
		c-1.744-0.206-3.798-0.384-6.181-0.557c-9.593-0.696-48.966-1.224-91.669-4.328c-9.719-0.688-39.352-2.789-78.644-5.574
		c-0.46-0.214-4.059-1.894-7.711-3.597c-2.354,0.746-4.993,1.582-7.649,2.423c-2.211-0.727-4.648-1.527-7.097-2.332
		c-2.261,0.441-4.712,0.917-7.173,1.396c-28.858-2.123-58.688-4.317-82.596-6.075c-23.967-1.832-41.991-3.316-47.153-4
		c-7.811-1.031-15.784,0.253-15.92,2.108c-0.133,1.856-0.269,3.714,16.316,4.455c4.407,0.195,16.561,0.919,37.694,2.265
		c21.221,1.389,51.458,3.366,91.943,6.013c0.824-0.172,1.787-0.369,6.584-1.363c0.183,0.045,0.06-0.012,1.289,0.379
		c1.213,0.391,3.049,0.982,6.079,1.956c0.97-0.319,2.13-0.7,7.363-2.425l0.305,0.114l0.207,0.081c0.198,0.088,0.417,0.188,0.667,0.3
		c1.17,0.534,2.906,1.332,5.722,2.623c3.004,0.152,7.685,0.393,13.574,0.698c5.677,0.324,12.519,0.717,20.07,1.148
		c15.108,0.893,33.063,1.956,50.25,2.973c19.203,1.129,78.391,6.165,88.849,6.925c7.451,0.54,10.503,0.282,11.709-0.748
		c0.322-0.029,0.649-0.193,0.952-0.457c0.319,0.328,0.725,0.52,1.211,0.636c2.494,0.593,4.348-4.943,7.313-17.402
		c2.968-12.466,12.592-63.976,25.802-119.448c6.06-25.513,37.053-156.005,56.601-238.313l-0.236-2.118
		c-0.06-0.553-0.079-1.108-0.086-1.66c-0.012-1.103,0.057-2.199,0.221-3.268c0.324-2.142,0.953-4.198,1.87-6.063
		c0.465-0.941,0.953-1.815,1.56-2.689l0.629-0.912c0.231-0.324,0.224-0.753,0.345-1.122l0.405-1.675
		c0.514-2.12,1.017-4.19,1.505-6.21c1.977-8.078,3.754-15.346,5.296-21.649c3.111-12.604,5.339-21.343,6.401-25.008
		c2.928-10.073,3.357-20.732,1.36-21.208c-1.999-0.476-4-0.953-8.624,20.672c-0.557,2.464-1.539,6.798-3.94,17.4
		c-2.485,10.632-6.439,27.548-12.892,55.158v0.064l-0.007,0.055l-0.062,0.298c-0.088,0.403-0.179,0.829-0.276,1.277
		c-0.195,0.898-0.412,1.887-0.648,2.966c-0.479,2.156-1.036,4.667-1.665,7.504c-1.277,5.672-2.849,12.647-4.662,20.697
		c-3.661,16.089-8.302,36.467-13.495,59.283c-10.386,45.636-22.991,101.02-34.442,151.341
		c-5.651,24.996-24.763,101.77-27.998,115.351c-0.946,3.972-1.567,6.975-1.922,9.282c-1.974-3.645-0.619-3.892-2.058-4.899
		c-1.536-1.077-3.695-3.202-5.567-6.349c-0.806-1.355-1.889-2.05-2.897-2.473c1.052-1.315,2.254-4.554,3.286-10.458
		C377.228,470.727,381.566,455.162,396.857,389.868z"/>
	<path style="fill:#231815;" d="M202.781,351.746c-6.83-0.1-13.212,0.51-14.265,0.302c-1.336-0.426-3.135-0.31-4.526,0.798
		c-0.312,0.243-0.646,0.607-0.881,1.005c-0.219,0.376-0.353,0.777-0.398,1.27c-0.057,0.939,0.522,1.648,1.441,2.382
		c0.758,0.598,1.374,1.074,1.627,1.505c0.434,0.388,0.636,0.624,1.048,0.679c0.729,0.124,1.703-0.357,2.368-1.027
		c0.2-0.224,1.663-0.546,3.976-0.727c2.306-0.186,5.42-0.231,8.717-0.172c6.596,0.124,13.898,0.655,17.104,0.526
		c3.378-0.138,6.561,0.009,8.671,0.514c0.176,0.036,0.472,0.093,0.874,0.172c0.379,0.124,0.862,0.279,1.434,0.465
		c1.31,0.403,3.037,0.936,5.086,1.568c2.053,0.617,4.428,1.329,7.027,2.111c1.301,0.386,2.659,0.791,4.059,1.208
		c0.7,0.207,1.413,0.419,2.134,0.631l1.191,0.352c0.579,0.222,1.239,0.126,1.532,0.186c12.349,0.796,26.847,1.732,37.031,2.389
		c2.506,0.152,4.772,0.291,6.823,0.417c1.024,0.048,1.996,0.093,2.916,0.138c0.369,0.014,0.727,0.029,1.077,0.043
		c0.374,0.038,0.736,0.079,1.089,0.117c2.961,0.438,5.401,1.024,7.244,1.425c3.714,0.85,5.281,1.136,6.013,1.494
		c2.902,1.484,7.192-5.305,1.639-5.755c-1.344-0.083-3.025-0.705-6.806-1.856c-1.934-0.548-4.236-1.313-7.806-1.837
		c-0.786-0.148-2.218-0.162-2.933-0.214c-0.869-0.045-1.787-0.09-2.754-0.138c-1.934-0.081-4.066-0.169-6.425-0.267
		c-10.06-0.362-24.379-1.046-36.729-1.665c-0.512,0.121-2.318-0.579-3.681-0.905c-1.422-0.403-2.801-0.793-4.128-1.167
		c-2.656-0.755-5.096-1.446-7.23-2.051c-2.135-0.607-3.962-1.127-5.386-1.532c-0.434-0.124-0.834-0.238-1.205-0.343
		c-0.255-0.064-0.636-0.086-0.767-0.11l-0.415-0.048c-0.524-0.062-0.929-0.107-1.208-0.141c-2.363-0.264-4.748-0.56-7.068-0.891
		C217.029,352.127,209.633,351.758,202.781,351.746z"/>
	<path style="fill:#231815;" d="M151.276,115.927c-0.591,0.61-1.101,1.301-1.491,2.056c-0.198,0.376-0.362,0.769-0.505,1.17
		l-0.176,0.576l-0.095,0.343l-1.489,5.493c-0.986,3.661-1.97,7.316-2.944,10.934c-0.969,3.621-1.93,7.211-2.875,10.744
		c-0.472,1.765-0.941,3.518-1.405,5.255c-0.233,0.867-0.465,1.732-0.693,2.59l-0.243,0.903c-0.102,0.412-0.162,0.834-0.179,1.255
		c-0.031,0.846,0.117,1.689,0.426,2.473c0.779,1.965,1.506,3.795,2.201,5.543l0.331,0.831l0.036,0.112l-0.095,0.207
		c-1.322,1.196-2.53,2.285-3.671,3.316c-0.619,0.557-1.22,1.098-1.811,1.629l-0.615,0.555c-0.274,0.257-0.519,0.534-0.738,0.831
		c-0.438,0.596-0.76,1.265-0.955,1.973c-1.353,4.843-2.568,9.19-3.692,13.212c-1.151,3.962-2.206,7.604-3.218,11.092
		c0,0-3.368,19.667-5.898,31.319c-0.743,3.419-0.806,5.238-0.253,5.11c-0.504,1.823-0.485,4.251,0.924,3.606
		c1.103-0.505,2.923,0.362,10.772,0.848c8.376,0.519,23.777,2.08,25.594,2.254c0.972,0.093,1.951,0.236,2.899,0.429
		c2.663,0.555,12.199,0.133,12.838,0.986c0.865,1.153,2.351,0.941,2.661-3.316c0.253-3.48-1.21-3.685-1.989-2.689
		c-0.51,0.653-9.979-0.708-12.692-0.191c-1.429,0.274-2.761,0.319-3.633-0.002c-1.277-0.467-16.761-2.146-25.12-3.292
		c-8.165-1.116-10.239-0.191-10.909-0.444c2.241-4.267,6.619-16.267,12.788-38.596c1.148-4.104,2.163-7.73,3.028-10.82
		c0.877-3.021,1.603-5.517,2.158-7.435l0.164-0.238l0.057-0.04l0.271-0.236l0.562-0.486c0.741-0.636,1.434-1.229,2.077-1.782
		c1.41-1.198,2.604-2.211,3.571-3.03c1.937-1.667,2.423-4.147,1.901-6.063c-0.436-1.272-0.822-2.399-1.172-3.426
		c-0.538-1.572-0.972-2.835-1.386-4.047l0.036-0.014c0.148-0.538,0.3-1.093,0.464-1.691c0.369-1.42,0.765-3.052,1.239-5.157
		c0.91-4.033,2.053-8.91,3.445-14.622c0.708-2.856,1.467-5.922,2.28-9.2c0.414-1.637,0.841-3.328,1.282-5.069
		c0.155-0.674,0.272-0.848,0.572-1.222l0.231-0.214c0.345-0.214,0.734-0.362,1.113-0.543c0.748-0.324,1.503-0.648,2.263-0.977
		c-0.095-0.867-0.376-1.861-0.557-2.799c-0.184-0.848-0.372-1.71-0.56-2.582c-0.112-0.517-0.226-1.041-0.341-1.572
		c-0.045-0.288-0.033-0.591,0.036-0.886c0.636-2.413,1.301-4.934,1.992-7.544c1.42-5.229,2.937-10.822,4.521-16.656
		c7.93-28.708,8.542-40.889,10.129-46.639c1.587-5.74-5.203,8.868-16.413,46.958c-1.343,4.667-2.72,9.445-4.119,14.303
		c-0.681,2.435-1.37,4.886-2.061,7.354l-0.129,0.462c-0.05,0.179-0.138,0.529-0.183,0.791c-0.105,0.564-0.155,1.141-0.145,1.717
		c0.002,0.553,0.086,1.203,0.186,1.663l0.193,0.946l0.171,0.831l0.002,0.002l0.002,0.002l-0.01,0.007
		C151.891,115.339,151.574,115.627,151.276,115.927z"/>
	<path style="fill:#231815;" d="M224.688,39.379c-0.993,0.53-2.637-0.292-9.712-0.587c-7.552-0.316-21.437-1.503-23.076-1.633
		c-0.874-0.069-1.758-0.188-2.613-0.359c-2.406-0.49-10.994,0.161-11.575-0.674c-0.786-1.132-2.122-0.883-2.373,3.377
		c-0.205,3.483,1.115,3.654,1.81,2.639c0.455-0.663,8.995,0.466,11.437-0.118c1.286-0.307,2.485-0.383,3.273-0.084
		c1.153,0.435,15.115,1.739,22.655,2.684c7.031,0.875,9.03,0.037,9.725,0.164c-2.107,4.272-6.107,16.217-11.574,38.385
		c-0.381,1.534-0.746,2.999-0.855,3.442l-0.086,0.21c-0.169,0.295-0.333,0.584-0.493,0.865c-0.324,0.565-0.629,1.098-0.903,1.579
		c-0.557,0.962-0.998,1.722-1.234,2.132c-0.56,0.977-0.855,2.065-0.898,3.104c-0.01,0.26-0.007,0.517,0.01,0.77l0.029,0.434
		c0.019,0.272,0.036,0.531,0.052,0.779c0.06,0.993,0.11,1.787,0.136,2.239l-0.074,0.324l-0.086,0.131l-0.477,0.648
		c-0.645,0.879-1.255,1.706-1.829,2.487c-0.577,0.777-1.12,1.51-1.632,2.196c-0.169,0.212-0.736,0.991-1.012,1.658
		c-0.305,0.686-0.491,1.398-0.569,2.099c-0.16,1.405,0.11,2.749,0.641,3.876c0.267,0.558,0.593,1.084,0.958,1.515l0.124,0.152
		l0.005,0.014l0.007,0.021l0.01,0.045l-0.081,0.245c-1.689,5.865-2.323,7.821-3.602,14.355
		c-2.639,13.469-7.621,36.431-14.655,64.948c-7.032,28.52-7.266,40.555-8.676,46.267c-1.406,5.701,4.924-8.876,14.944-46.734
		c6.584-24.873,13.14-53.223,18.884-77.148c0.4-1.639,0.207-3.368-0.481-4.834c-0.171-0.365-0.372-0.715-0.6-1.046l-0.174-0.243
		l-0.091-0.119l-0.105-0.007l-0.479,0.329l-1.911,1.313l-0.41,0.274l0.303-0.276l0.603-0.555c2.318-2.118,1.479-1.382,1.62-1.532
		l-0.026-0.045l-0.021-0.21l0.038-0.095l0.555-0.796c0.884-1.253,1.741-2.47,2.582-3.659l0.626-0.888l0.312-0.438
		c0.195-0.279,0.374-0.569,0.531-0.872c0.624-1.205,0.896-2.573,0.793-3.907c-0.086-1.127-0.162-2.12-0.233-3.047l-0.026-0.398
		l0.01-0.062l0.048-0.112c0.631-1.105,1.184-2.07,1.694-2.961c0.257-0.446,0.503-0.872,0.743-1.289l0.179-0.31l0.252-0.617
		l0.505-1.248c0.977-3.754,1.689-6.482,2.377-9.122c0,0,2.756-19.49,4.922-31.048c0.631-3.36,0.644-5.156,0.111-5.054
		C225.986,41.121,225.953,38.701,224.688,39.379z"/>
</g>
</svg>
