<?xml version="1.0" encoding="iso-8859-1"?>
<!-- Generator: Adobe Illustrator 22.1.0, SVG Export Plug-In . SVG Version: 6.00 Build 0)  -->
<svg version="1.1" id="_x31_2" xmlns="http://www.w3.org/2000/svg" xmlns:xlink="http://www.w3.org/1999/xlink" x="0px" y="0px"
	 viewBox="0 0 512 512" style="enable-background:new 0 0 512 512;" xml:space="preserve">
<g>
	<path d="M222.995,107.156c-4.042,3.815-5.014,7.98-8.033,12.032c-1.554,2.086-0.236,3.884-3.064,1.924
		c-1.728-1.198-0.494-5.613-0.083-6.913c2.924-9.252,15.673-19.127,25.492-18.163c5.924,0.582,10.44,4.733,12.821,10.062
		c2.099,4.699,2.547,10.012,2.486,15.093c-0.01,0.867-1.271,13.437-1.638,13.197c-2.223-1.453-1.968-10.535-2.552-13.333
		c-0.906-4.337-1.835-9.338-4.135-13.185C239.063,99.127,229.942,101.867,222.995,107.156z"/>
	<path d="M270.186,134.389c-2.151-0.543-6.03-2.161-5.251-5.113c0.789-2.988,4.222-0.273,5.517,0.101
		c1.833,0.53,21.901,6.339,20.182,8.377C286.823,142.271,273.903,136.296,270.186,134.389z"/>
	<path d="M314.055,123.936c-3.013,3.061-5.089,6.606-7.769,9.877c-1.898,2.316-4.029,5.557-4.511,0.444
		c-0.689-7.301,11.342-16.882,16.869-19.952c7.447-4.136,17.566-4.432,22.982,3.042c2.586,3.569,7.18,21.45,1.817,24.87
		c0.269-0.172-1.988-10.774-2.237-11.696c-1.052-3.905-2.736-9.205-6.347-11.558C328.216,114.633,319.321,119.669,314.055,123.936z"
		/>
	<path d="M378.652,170.057c-5.532-4.559-11.028-9.156-16.51-13.776c-2.496-2.104-11.177-8.525-2.284-6.405
		c5.926,1.413,11.702,8.014,16.296,11.796c5.361,4.414,10.841,8.785,15.33,14.125c9.059,10.774,17.939,23.386,24.63,35.776
		c3.316,6.14,15.559,28.868,9.93,35.639c1.896-1.8-5.361-15.391-6.358-17.284c-3.822-7.259-7.691-14.379-12.221-21.229
		C398.785,195.574,390.176,180.867,378.652,170.057z"/>
	<path d="M174.702,144.004c-8.114,0.454-17.282,3.11-24.616,6.508c-8.837,4.094-16.649,15.015-4.306,19.59
		c8.707,3.227,18.008,4.643,27.029,6.618c10.613,2.324,20.14,7.457,30.253,11.203c9.844,3.647,20.304,4.783,30.079,8.719
		c9.057,3.647,17.725,7.584,26.467,11.908c18.255,9.028,38.118,16.201,57.077,23.661c3.554,1.398,7.194,2.336,10.988,2.818
		c2.291,0.291,8.878-0.703,10.357,1.058c6.149,7.32-13.392,5.028-15.784,4.368c-9.511-2.627-18.259-8.558-27.257-12.55
		c-9.6-4.26-19.115-8.551-28.842-12.523c-17.741-7.243-34.009-15.817-52.879-19.982c-8.61-1.901-16.392-5.093-24.548-8.351
		c-10.262-4.1-20.456-5.688-31.111-8.248c-8.651-2.078-22.602-2.972-24-14.086c-1.268-10.081,7.447-16.74,15.566-20.384
		c8.462-3.797,20.192-8.051,29.632-7.878c2.115,0.039,8.213,0.298,8.447,3.613C187.494,143.455,176.823,143.857,174.702,144.004z"/>
	<path d="M336.604,227.767c-1.264-0.677-19.051-8.64-19.296-8.253c3.381-5.325,42.766,11.912,32.542,25.114
		c-3.686,4.76-8.759,7.649-14.775,7.918c-4.863,0.218-9.711-1.036-14.295-2.544c-1.072-0.353-8.336-4.277-9.275-4.045
		c3.516-0.868,11.628,2.813,15.506,3.224c6.262,0.665,11.655,0.762,16.706-3.228c3.159-2.496,5.674-4.754,4.014-8.568
		C345.992,233.389,340.119,229.885,336.604,227.767z"/>
	<path d="M177.544,198.071c-1.619-2.45-13.233-16.714-10.197-17.846c5.598-2.088,15.846,17.532,17.523,21.184
		c4.413,9.602,5.906,21.41,6.065,31.888c0.082,5.424-0.396,10.811-1.638,16.097c-0.242,1.03-3.552,9.826-3.76,9.55
		c-1.498-1.984,0.585-11.611,0.466-14.492c-0.196-4.756-0.675-9.512-1.174-14.245C183.69,219.422,182.713,207.813,177.544,198.071z"
		/>
	<path d="M167.847,116.508c2.245,3.263,4.89,5.735,8.021,8.083c2.15,1.612,7.307,3.726,2.339,5.554
		c-8.512,3.131-17.294-12.851-19.489-18.714c-3.43-9.158-1.994-18.725,4.411-26.224c3.113-3.645,7.169-6.475,11.753-7.909
		c2.249-0.704,10.513-2.557,11.98,0.491c-0.308-0.811-9.981,3.531-11.347,4.54c-3.374,2.494-6.384,6.086-8.458,9.711
		C162.546,99.926,163.721,108.662,167.847,116.508z"/>
	<path d="M181.096,69.727c0.673,1.498,3.187,4.366,5.216,3.459c2.764-1.235,0.326-4.371,0.033-6.389
		c-1.008-6.936,3.413-14.53,7.87-19.559c5.124-5.782,12.429-9.646,20.139-10.505c3.598-0.401,7.328-0.109,10.805,0.906
		c2.291,0.669,7.065,4.197,9.218,3.832c6.874-1.164-2.325-7.058-5.256-7.911c-6.568-1.912-15.187-0.925-21.662,1.142
		C196.502,38.2,174.708,56.053,181.096,69.727z"/>
	<path d="M244.152,30.149c-0.923,1.656-0.951,5.158,1.533,5.4c2.131,0.208,4.381-3.612,5.71-4.914
		c3.885-3.808,8.533-7.258,13.724-9.059c6.333-2.196,12.954-1.488,18.885,1.617c2.42,1.267,7.924,8.989,10.81,8.24
		c4.586-1.19-1.238-7.797-3.01-9.031c-4.179-2.909-11.798-5.06-16.802-5.506C265.953,16.091,248.714,21.582,244.152,30.149z"/>
	<path d="M302.259,23.808c-1.461,1.144-4.893,7.521-1.076,8.254c1.768,0.34,4.804-3.673,6.384-4.517
		c7.394-3.952,18.249-4.191,26.332-3.169c10.163,1.285,18.881,8.27,25.461,15.803c2.676,3.063,5.114,6.461,6.796,10.178
		c1.511,3.339,1.212,10.306,3.01,13.031c1.733,2.627,2.609,2.655,4.252-0.74c1.718-3.55-0.177-9.065-1.833-12.252
		c-3.777-7.273-10.509-14.233-16.757-19.493C343.063,20.999,315.947,12.935,302.259,23.808z"/>
	<path d="M388.717,61.104c-1.945-0.79-14.38-1.775-14.572-2.94c-1.18-7.182,16.662-1.115,18.794-0.038
		c7.509,3.795,14.777,9.978,18.061,17.929c1.671,4.047,3.981,20.559-1.388,23.16c0.182-0.088-0.642-9.888-0.753-10.727
		c-0.567-4.277-1.797-8.419-3.959-12.171C401.229,69.948,395.108,64.621,388.717,61.104z"/>
	<path d="M416.288,92.197c-5.164-0.762-3.092,3.929-0.577,5.539c3.192,2.043,6.837,1.696,9.773,4.589
		c3.76,3.704,4.975,9.943,3.524,14.944c-0.691,2.381-5.59,7.024-5.296,8.993c0.714,4.789,5.729,0.357,6.917-1.806
		c1.468-2.674,1.973-7.115,2.092-10.165C433.114,104.271,426.033,94.693,416.288,92.197z"/>
	<path d="M428.902,121.889c-1.372-1.009-6.409-3.649-7.071-0.589c-0.504,2.33,4.575,5.564,5.73,6.51
		c6.202,5.08,13.273,9.28,17.066,16.594c4.049,7.806,5.693,17.548,0.857,25.338c-4.962,7.993-12.609,9.254-19.959,13.749
		c-8.328,5.094,2.736,4.505,6.957,2.441c7.3-3.568,14.941-11.032,17.836-18.701C456.934,149.708,441.882,131.518,428.902,121.889z"
		/>
	<path d="M424.734,186.259c-4.629-9.118,2.518-8.304,5.082-0.301c1.32,4.118,1.162,8.467-1.332,12.125
		c-0.284,0.417-8.912,7.943-9.346,5.348c-0.278-1.663,3.425-6.351,4.063-7.946C424.439,192.391,425.241,189.628,424.734,186.259z"/>
	<path d="M211.953,356.839c-7.25-20.976-10.793-43.525-12.653-65.593c-0.316-3.752-2.064-30.944-8.478-28.77
		c-5.02,1.701,1.878,24.383,2.799,28.238c5.909,24.739,10.044,49.453,17.685,73.81c1.642,5.234,17.129,58.451,23.933,57.142
		c4.033-0.776-8.131-24.296-9.493-27.46C220.496,382.002,215.988,369.493,211.953,356.839z"/>
	<path d="M311.257,341.39c26.181-22.738,50.918-47.674,79.646-67.232c6.951-4.732,13.651-9.715,20.204-14.987
		c3.005-2.418,16.912-12.125,7.675-13.397c-6.514-0.897-15.83,7.305-20.45,10.979c-5.523,4.392-10.439,9.439-15.699,14.127
		c-25.663,22.875-49.955,47.248-76.236,69.431c-14.902,12.578-29.472,25.485-44.123,38.349c-6.026,5.291-12.34,10.462-17.687,16.466
		c-1.172,1.316-12.188,16.942-5.93,17.803c2.256,0.311,9.443-11.99,10.751-13.568c6.164-7.437,13.234-13.936,20.218-20.577
		C283.158,365.919,297.171,353.641,311.257,341.39z"/>
	<path d="M453.111,287.381c-3.05-8.505-8.009-14.923-13.936-21.584c-2.492-2.801-15.669-15.182-12.214-19.383
		c3.172-3.856,14.643,7.586,17.056,10.442c6.207,7.348,11.853,14.681,16.478,23.136c15.176,27.746,29.303,57.454,38.255,87.87
		c5.15,17.496,5.606,36.877,7.771,54.923c1.081,9.007,2.043,18.031,3.219,27.027c0.93,7.122,3.493,15.125,1.553,22.221
		c-0.472,1.726-1.797,6.376-4.523,5.801c-2.411-0.509-2.265-6.319-2.457-7.948c-1.138-9.687-2.089-19.399-3.162-29.094
		c-1.588-14.349-2.403-28.824-3.344-43.227c-1.401-21.436-8.129-39.734-15.987-59.646c-3.35-8.487-6.884-16.779-11.72-24.539
		C464.897,305.031,456.413,296.671,453.111,287.381z"/>
	<path d="M408.067,359.302c10.822-6.212,19.051,15.347,21.17,22.448c2.329,7.807,4.474,15.996,5.588,24.081
		c0.285,2.069-0.448,4.807-0.135,6.55c0.397,2.207,1.611,2.445,2.244,4.588c1.212,4.103,0.746,9.126,1.313,13.65
		c0.577,4.599,2.731,9.019,3.11,13.771c0.435,5.451,0.243,10.94,0.692,16.429c0.417,5.1,2.807,13.645,1.001,18.608
		c-2.147-0.587-4.294-1.175-6.441-1.762c2.117,1.38,4.127-1.775,4.365,2.368c0.063,1.094-1.513,3.089-2.029,4.142
		c-1.941-10.848-1.287-21.945-1.819-32.928c-0.501-10.327-2.492-21.757-4.502-31.766c-0.943-4.694-0.902-9.427-1.812-14.133
		c-1.24-6.417-3.817-12.789-6.08-18.894c-2.553-6.886-4.513-16.513-9.648-22.045c-0.781-1.016-1.726-1.834-2.837-2.455
		c-1.079-0.553-2.183-0.482-3.312,0.211C408.629,361.924,405.633,360.417,408.067,359.302z"/>
	<path d="M135.117,341.517c4.245-9.869,9.555-19.477,16.468-27.743c1.135-1.357,15.436-16.133,17.234-12.939
		c1.354,2.406-11.156,14.565-12.675,16.464c-5.837,7.294-10.517,15.361-14.432,23.831c-7.873,17.03-13.443,35.552-17.354,53.883
		c-3.839,17.995-5.899,36.713-4.455,55.104c0.67,8.532,2.322,16.939,4.372,25.241c1.788,7.244,5.351,13.092,7.804,19.823
		c-0.054-0.129-4.025-3.394-4.481-4.031c-2.508-3.507-4.101-7.842-5.637-11.837c-2.232-5.803-4.201-11.787-5.787-17.8
		c-3.692-13.992-4.183-28.518-2.883-42.881C115.691,392.118,123.535,365.474,135.117,341.517z"/>
	<path d="M155.562,273.941c2.056-1.127,21.399-10.137,20.307-4.562c-0.576,2.941-16.8,8.185-19.612,9.752
		c-10.114,5.637-19.735,11.458-30.604,15.668c-5.07,1.964-10.242,3.617-15.603,4.575c-0.921,0.165-11.79,0.749-11.538,0.328
		c1.258-2.104,10.901-3.845,13.494-5.003c4.359-1.947,8.647-4.058,12.984-6.052C135.271,283.92,145.292,278.669,155.562,273.941z"/>
	<path d="M23.359,338.868c1.808-5.701,1.968-11.349,1.93-17.263c-0.024-3.74-0.787-13.073,3.719-14.8
		c8.22-3.15,5.598,19.278,5.375,22.348c-0.837,11.502-2.967,22.715,0.389,34.037c2.831,9.55,6.924,21.915,18.502,22.195
		c11.722,0.283,24.114-4.325,34.9-8.306c5.7-2.104,11.395-4.354,16.86-7.02c4.302-2.099,8.992-6.15,14.021-5.77
		c6.505,0.491,4.803,4.377,0.653,7.023c-5.563,3.547-12.102,5.95-18.18,8.46c-10.406,4.296-21.79,7.122-32.871,8.91
		c-14.628,2.36-26.61,4.863-34.207-10.777C29.803,368.34,20.078,349.439,23.359,338.868z"/>
	<path d="M32.483,149.122c-1.773,1.823-8.246,12.052-10.153,7.884c-1.682-3.677,9.003-12.472,11.294-13.977
		c5.098-3.348,12.386-5.261,18.481-5.506c4.917-0.198,14.308,2.595,17.435,6.892c-0.129-0.117-6.801-1.037-8.239-1.415
		c-3.086-0.812-5.367-0.963-8.601-0.607C45.918,143.138,37.922,144.792,32.483,149.122z"/>
	<path d="M37.357,168.663c-1.038,0.999-7.126,9.01-8.66,8.637c-5.338-1.299,6.648-12.284,7.465-13.002
		c5.507-4.84,11.814-8.826,18.643-11.539c2.15-0.854,13.276-5.133,14.692-2.117C69.173,149.81,39.307,167.186,37.357,168.663z"/>
	<path d="M22.022,186.127c-1.143,1.25-3.177,2.921-3.899,4.529c-0.903,2.011,2.485,1.908-0.315,3.553
		c-3.887,2.284-3.408-4.134-3.12-5.334c0.598-2.489,4.064-5.221,5.799-6.962c4.704-4.722,9.845-8.928,16.697-9.721
		c3.462-0.4,6.804,0.121,10.01,1.451c0.292,0.121,6.208,3.686,5.431,3.873c-2.482,0.597-6.465-1.169-9.2-1.109
		c-2.546,0.056-5.17,0.425-7.607,1.151C30.567,179.121,26.144,182.622,22.022,186.127z"/>
	<path d="M27.684,195.738c-1.841,1.529-4.451,6.679-6.409,6.199c-4.594-1.127,3.855-9.299,4.536-9.831
		c4.25-3.322,9.292-5.293,14.514-6.501c0.681-0.158,14.533-0.376,13.626,0.463c-2.1,1.942-9.692,3.39-12.409,4.305
		C36.849,191.953,31.989,193.211,27.684,195.738z"/>
	<path d="M36.892,206.381c-1.041,0.762-5.874,4.792-7.408,4.083c-3.998-1.849,4.6-7.064,5.484-7.653
		c1.5-0.999,25.053-12.068,24.565-6.421C59.187,198.848,39.322,205.184,36.892,206.381z"/>
	<path d="M13.648,170.83c0.869-1.579,3.916-5.744,5.952-3.413c1.471,1.684-2.396,5.429-3.162,6.613
		c-1.028,1.588-8.71,15.896-10.402,14.802C1.648,185.996,11.833,172.858,13.648,170.83z"/>
	<path d="M3.591,202.097c0.293-1.639,3.182-10.197,6.491-8.862c2.299,0.928-2.61,10.301-2.807,12.406
		c-0.48,5.132,0.435,11.115,2.735,15.706c0.511,1.02,5.541,8.286,7.18,7.115c-5.041,3.601-11.575-4.893-13.102-8.545
		C1.788,214.418,1.942,207.754,3.591,202.097z"/>
	<path d="M78.384,159.982c1.022,4.518,2.662,9.073,3.273,13.673c0.464,3.496,0.62,8.305-2.65,3.881
		c-4.046-5.475-9.174-26.996-0.806-30.317c7.879-3.127,13.726,10.269,16.492,15.297c2.506,4.555,4.277,8.676,3.046,13.9
		c-0.572,2.429-5.09,12.106-7.827,13.093c0.948-0.442,4.039-11.13,4.268-13.146c0.719-6.342-4.089-12.009-7.356-17.015
		C83.072,153.598,76.065,146.399,78.384,159.982z"/>
	<path d="M47.639,132.382c1.006,7.862-4.316,12.527-4.708,2.198c-0.231-6.091-4.561-23.851,2.022-28.525
		c0.695-0.493,2.887,12.216,2.95,13.342C48.146,123.699,47.868,128.085,47.639,132.382z"/>
	<path d="M33.898,93.191c-2.683,4.902,12.126,15.967,3.494,14.684c-4.185-0.622-7.78-7.207-8.459-10.952
		c-1.019-5.615,2.409-9.021,7.192-11.212c5.521-2.529,55.381-4.366,52.369,6.008c0.832-2.947-25.041-2.433-27.455-2.386
		C53.604,89.478,39.733,87.095,33.898,93.191z"/>
	<path d="M78.049,104.225c1.267-1.515,9.554-9.795,11.655-8.377c4.359,2.941-8.053,11.008-9.15,13.12
		c-2.717,5.233-1.341,13.926-1.892,19.732c-0.338,3.561-0.851,7.122-1.088,10.691c-0.095,1.437,0.683,6.423-0.179,7.612
		c-0.325,0.648-3.296-7.104-3.502-8c-0.921-3.999-1.19-7.934-1.079-12.031C73.013,119.672,72.117,109.591,78.049,104.225z"/>
	<path d="M31.88,225.568c-1.468,1.477-12.731,8.187-11.105,2.271c0.41-1.492,6.35-3.504,7.58-4.509
		c2.459-2.012,4.067-4.774,6.16-7.111c2.89-3.226,5.681-5.319,9.816-6.914c1.961-0.757,15.505-1.694,15.677-1.914
		c-2.996,3.828-12.705,5.357-16.882,8.067C38.821,218.249,35.876,222.361,31.88,225.568z"/>
	<path d="M119.145,267.008c1.718-11.87-1.339-25.876-6.1-36.781c-2.029-4.648-4.697-8.893-7.871-12.847
		c-0.872-1.086-5.983-5.467-5.677-7.248c0.439-2.564,11.968,7.204,12.296,7.576c4.254,4.82,6.955,10.59,8.971,16.647
		c3.905,11.73,6.482,25.565,3.291,37.76c-6.03,23.044-30.613,37.972-52.818,41.593c-20.193,3.293-40.538-2.444-56.061-15.979
		c-9.338-8.142-14.085-19.837-15.052-32.093c-0.715-9.071,1.484-24.54,11.58-28.401c-3.838,1.014-7.437,13.498-7.87,16.393
		c-1.181,7.9,0.709,16.117,3.735,23.407c6.124,14.753,20.6,23.391,35.387,27.949C70.643,313.518,113.12,298.279,119.145,267.008z"/>
	<path d="M108.794,228.481c4.731,2.755-8.838,6.353-11.031,7.109c-7.071,2.437-14.122,4.458-21.524,5.624
		c-12.744,2.008-25.597,2.086-38.38,0.535c-6.7-0.813-13.423-1.932-20.156-2.424c-3.875-0.283-8.61-1.157-5.905,2.895
		c2.389,3.58,13.65,4.006,17.584,4.407c4.853,0.494,9.7,0.385,14.567,0.304c13.597-0.225,27.172-1.223,40.412-4.511
		c7.076-1.757,14.153-4.16,20.903-6.923c5.342-2.187,10.141-4.23,4.863-8.932c-9.061-8.072-29.851-5.773-40.794-5.472
		c-5.424,0.149-34.548-1.489-36.296,7.218c-0.158,0.898,14.121-2.081,14.911-2.217c6.925-1.186,13.917-1.644,20.926-2.017
		C82.089,223.373,96.549,222.491,108.794,228.481z"/>
	<path d="M78.228,191.727c-0.117-1.305-0.314-7.924,2.17-8.155c3.577-0.332,1.692,7.314,2.008,9.233
		c0.731,4.441,3.396,6.773,6.732,9.502c0.132,0.108,7.673,7.03,6.191,7.191c-2.91,0.315-10.72-4.122-12.692-5.934
		C79.167,200.377,77.883,196.346,78.228,191.727z"/>
	<path d="M225.208,303.456c-6.23-6.245-12.311-12.976-16.806-20.606c-2.361-4.008-4.393-14.674-8.71-16.485
		c-7.235-3.035,0.165,10.991,1.652,13.079c4.496,6.314,9.451,12.289,14.74,17.952c5.234,5.603,10.555,11.162,16.039,16.519
		c2.729,2.665,11.31,14.034,15.48,13.436c5.522-0.792-4.651-7.77-6.311-9.123C235.632,313.617,230.386,308.597,225.208,303.456z"/>
	<path d="M336.652,284.296c-15.282,7.839-30.615,15.658-46.395,22.458c-5.654,2.437-11.359,4.522-17.173,6.526
		c-4.55,1.568-17.532,4.792-19.563,9.818c-3.452,8.542,24.138-4.587,27.76-6.538c14.374-7.746,28.959-15.134,43.436-22.687
		c13.393-6.988,27.006-13.544,40.579-20.172c5.843-2.853,11.69-5.705,17.599-8.418c3.191-1.465,11.146-3.783,12.701-7.435
		c1.419-3.332,1.06-2.64-2.523-2.523c-5.969,0.195-13.75,6.687-18.878,9.471C361.801,271.524,349.203,277.866,336.652,284.296z"/>
	<path d="M224.686,150.272c-7.644-3.822-7.011-23.26,2.987-22.799C237.998,127.949,230.803,153.331,224.686,150.272z"/>
	<path d="M304.261,173.101c-7.643-3.822-7.012-23.26,2.987-22.799C317.574,150.779,310.379,176.16,304.261,173.101z"/>
	<path d="M232.87,189.674c-2.976,0.15-5.822-6.678-2.613-7.305C233.06,181.821,235.224,189.557,232.87,189.674z"/>
	<path d="M251.583,192.863c1.223-2.716,8.598-2.142,7.695,1.002C258.488,196.611,250.614,195.013,251.583,192.863z"/>
	<path d="M405.125,211.327c-4.391,3.193-12.357,8.6-13.599,14.363c-1.01,4.687,3.521,6.292,4.504,10.708
		c0.777,3.49-0.996,8.951,2.262,11.519c3.771,2.973,14.345-0.49,18.012-2.183c10.583-4.885,6.479-13.617,2.178-21.787
		C417.602,222.276,407.619,205.091,405.125,211.327z"/>
	<path d="M372.446,188.64c5.128,1.709,13.539,17.413,4.887,14.95c-2.087-0.594-3.388-3.529-4.79-4.942
		c-1.743-1.756-4.069-2.711-5.796-4.308c-2.08-1.922-3.946-1.98-1.731-4.682C366.426,187.938,370.613,188.029,372.446,188.64z"/>
	<path d="M238.426,320.208c-2.509,4.18-7.364,12.188-6.834,17.241c0.41,3.914,4.658,5.643,4.878,9.622
		c0.133,2.404-2.049,6.313-2.781,8.569c-1.672,5.15-3.343,10.3-5.015,15.451c-1.697,5.23-5.707,12.625-5.55,18.101
		c0.096,3.348,2.548,7.714,3.64,10.857c1.461,4.202,2.605,10.595,5.384,14.103c2.388,3.014,1.214,2.942,3.679-0.542
		c3.05-4.312,4.398-9.768,7.33-14.139c3.922-5.845,13.01-9.328,16.08-15.442c2.366-4.711,0.076-15.139-0.095-20.473
		c-0.122-3.819-1.263-9.103-0.41-12.835c0.801-3.505,4.078-4.487,5.846-7.852c2.078-3.957,1.4-9.56,1.415-13.962
		c0.005-1.295,0.641-6.997-0.403-8.078c-1.445-1.496-1.22-0.287-3.619,0.473c-3.312,1.049-7.9,5.947-11.275,5.765
		C247.222,326.878,241.548,321.952,238.426,320.208z"/>
	<path d="M44.416,267.925c-1.926,3.171-5.669,1.983-7.106-0.595c-0.592-1.062,1.076-3.337-0.349-4.735
		c-2.762-2.71-5.155,0.912-4.893,3.653c0.3,3.139,3.824,5.881,6.778,6.306c6.476,0.931,12.278-7.674,7.754-13.014
		c-1.978-2.335-5.753-3.1-4.799,0.933c0.173,0.732,2.568,1.073,3.049,2.182C45.606,264.402,45.4,266.209,44.416,267.925z"/>
	<path d="M93.023,265.772c-1.915,3.814-5.947,2.661-7.488,0.681c-0.979-1.259-0.012-8.013-4.49-4.36
		c-6.061,4.944,5.821,10.833,10.794,7.983c4.854-2.782,6.288-13.942-1.479-13.737c-5.259,0.139-2.247,2.386-0.614,3.781
		C91.59,261.693,95.155,261.072,93.023,265.772z"/>
	<path d="M68.187,295.774c-5.111,7.395-7.553-2.498-10.713-3.187c-4.512-0.984-3.276,4.745-1.103,6.594
		c2.238,1.905,6.6,2.012,9.208,1.133c4.5-1.516,10.343-10.566,3.768-13.496c-3.479-1.55-3.531,0.452-3.002,2.736
		C66.919,292.037,71.733,291.099,68.187,295.774z"/>
</g>
</svg>
