<?xml version="1.0" encoding="iso-8859-1"?>
<!-- Generator: Adobe Illustrator 22.1.0, SVG Export Plug-In . SVG Version: 6.00 Build 0)  -->
<svg version="1.1" id="_x31_" xmlns="http://www.w3.org/2000/svg" xmlns:xlink="http://www.w3.org/1999/xlink" x="0px" y="0px"
	 viewBox="0 0 512 512" style="enable-background:new 0 0 512 512;" xml:space="preserve">
<g>
	<path style="fill:#94C85C;" d="M129.131,406.38c-7.005-15.628-15.628-32.872-24.249-41.494
		c-8.622-8.622-17.244-24.789-18.861-41.494c-1.616-16.706,19.939-53.35,27.483-58.2c7.545-4.85,25.867-15.627,30.178-18.321
		c4.311-2.695,42.033-17.783,58.199-22.095c16.166-4.311,42.033-6.466,51.194-5.928c9.161,0.539,36.644,8.623,36.644,8.623
		s27.483,3.772,42.033,9.699c14.55,5.928,18.861,9.7,18.861,9.7s9.699-4.311,13.472,1.617c3.772,5.928-0.539,15.088-0.539,15.088
		l28.022,20.477c0,0,9.161-8.083,15.628-3.233c6.467,4.85,1.078,18.323-1.617,21.556c-2.694,3.233,2.156,9.161,7.006,13.471
		c4.849,4.312,12.394,14.55,9.161,21.018c-3.233,6.466-22.094,10.778-46.344,3.771c-24.25-7.005-33.95-17.244-46.344-28.021
		c-12.394-10.778-14.55-19.399-20.477-12.933c-5.928,6.467-8.623,45.267-4.85,51.732c3.772,6.467,5.928,11.318,5.928,11.318
		s-14.439-1.83-20.477-4.85c-8.623-4.311-9.161-4.85-7.006-4.85c2.156,0-17.244,10.238-26.944,14.011
		c-9.699,3.772-30.178,9.161-38.261,9.7c-8.083,0.538-16.706-0.54-16.706-0.54s3.233,28.561-7.544,44.727
		c-10.777,16.168-28.022,25.868-29.639,32.334c-1.617,6.467-4.311,11.317-2.155,16.166c2.155,4.85,2.155,20.478,1.078,22.633
		c-1.078,2.155-6.467-7.543-6.467-7.543s1.078,15.088-2.695,17.244c-3.772,2.155-5.389-11.316-5.389-11.316
		s-2.155,11.316-3.772,11.855c-1.617,0.538-3.772-13.473-3.772-13.473s-1.617,15.088-4.85,16.166
		c-3.233,1.078-4.85-11.316-4.85-11.316s-1.078,16.166-3.233,17.244c-2.156,1.078-3.772-14.011-3.772-14.011s0,15.088-4.85,15.088
		c-4.85,0-3.233-12.933-5.389-18.861c-2.156-5.928-5.389-11.855-9.7-15.088c-4.311-3.233-7.544-11.855-5.389-19.938
		c2.156-8.083,11.317-32.334,15.089-36.105C116.737,418.235,129.131,406.38,129.131,406.38z"/>
	<path style="fill:#FFFFFF;" d="M292.24,292.739c-12.719,14.246-33.07,19.333-45.788,17.299c-12.719-2.036-54.946,1.016-65.121,11.7
		c-10.175,10.684-7.123,16.789-7.631,25.947c-0.509,9.158,3.561,19.842,18.824,25.947c15.263,6.105,32.56,2.544,46.297-0.508
		c13.737-3.053,43.354-20.094,43.354-20.094s13.119,7.883,19.224,8.392c6.105,0.51,9.158,2.036,5.087-4.069
		c-4.07-6.105-13.227-20.351-13.736-35.614c-0.508-15.263,2.544-28.999,2.544-28.999H292.24z"/>
	<path style="fill:#ED7342;" d="M296.31,291.213c7.122,1.526,25.947,15.263,25.438,18.315c-0.508,3.053-10.175,15.772-10.684,28.491
		c-0.508,12.718-4.579,19.333-4.579,19.333s-12.719-24.421-13.736-38.157C291.731,305.459,296.31,291.213,296.31,291.213z"/>
	<path style="fill:#EEEEEF;" d="M200.918,2.747h8.394v208.337c0,0,5.342,3.816,5.342,10.684c13.736-1.526,22.894-1.526,22.894-1.526
		s-1.272,152.882,0,152.882s-22.131,5.087-28.236,5.087c-6.105,0-16.789-4.579-16.789-4.579s-11.447,0-12.21-4.579
		c-0.763-4.579-0.763-68.683-0.763-71.735c0-3.053,1.526-43.499,1.526-46.552c0-3.053,1.526-20.604,1.526-20.604l9.921-2.289
		c0,0-12.21-19.079-27.473-25.184c-15.263-6.105-16.789-5.342-16.789-10.684c0-5.342,7.631-6.868,7.631-6.868
		s20.605,9.158,28.236,15.263c7.631,6.105,12.973,16.026,12.973,16.026c3.816-4.579,3.053-154.917,3.053-154.917L200.918,2.747z"/>
	<path style="fill:#231815;" d="M154.062,245.631c-10.577,3.717-19.906,11.085-27.47,14.579c-7.608,3.528-0.762-5.227,3.833-7.865
		c4.532-2.661,12.813-7.256,19.425-10.52c3.277-1.663,16.315-8.07,29.957-12.727c6.8-2.365,13.704-4.343,19.321-5.684
		c2.818-0.631,5.292-1.195,7.27-1.571c1.982-0.362,3.448-0.63,4.23-0.773c1.571-0.279,5.764-0.911,11.426-1.644
		c5.658-0.709,12.783-1.491,20.156-1.691c7.369-0.24,14.965,0.363,21.326,1.422c6.366,1.063,11.527,2.398,14.383,3.046
		c2.886,0.586,5.156,1.548,6.923,2.415c1.733,0.945,2.929,1.888,3.607,2.687c1.356,1.596,0.658,2.615-1.853,1.932
		c-2.501-0.721-8.636-2.79-14.626-4.302c-5.986-1.53-11.821-2.434-13.356-2.553c-0.382-0.046-1.221-0.178-2.414-0.375
		c-1.201-0.145-2.757-0.332-4.562-0.55c-3.622-0.332-8.275-0.578-13.084-0.492c-9.618,0.198-19.76,1.458-23.323,2.263
		c-3.584,0.768-10.498,1.99-17.459,3.682c-6.964,1.667-13.96,3.778-17.88,5.207c-3.957,1.338-9.524,4.311-14.501,7.161
		C160.415,242.154,156.016,244.916,154.062,245.631z"/>
	<path style="fill:#231815;" d="M302.534,230.406c-8.384-0.431-11.926-0.381-13.173-1.41c-0.587-0.486-0.454-1.129,0.376-1.73
		c0.412-0.3,0.996-0.587,1.725-0.828c0.72-0.172,1.579-0.277,2.537-0.299c7.546,0.118,14.908,0.526,20.68,1.929
		c5.723,1.417,11.362,3.275,16.582,6.095c2.607,1.42,6.277,4.038,8.184,6.102c1.871,2.139,2.248,3.184-0.699,1.34
		c-1.536-0.854-2.874-1.517-4.188-2c-1.285-0.529-2.506-0.929-3.772-1.334c-2.515-0.827-5.203-1.662-9.192-3.018
		c-3.992-1.358-8.734-2.754-12.511-3.585c-1.883-0.446-3.525-0.733-4.688-0.969C303.227,230.515,302.534,230.406,302.534,230.406z"
		/>
	<path style="fill:#231815;" d="M352.485,247.706c-3.09,1.043-5.221,2.005-6.845,2.529c-1.611,0.541-2.704,0.678-3.358,0.425
		c-1.32-0.435-0.691-2.692,2.23-4.054c2.866-1.312,5.766-2.455,8.693-3.194c1.475-0.367,2.998-0.622,4.554-0.608
		c1.549,0.012,3.148,0.326,4.537,1.021c2.859,1.397,4.723,4.139,5.49,6.837c0.794,2.699,0.649,5.67-0.215,8.123
		c-0.785,2.555-2.959,5.609-4.565,7.219c-1.607,1.64-2.569,2.085-1.385-0.583c1.158-2.665,1.639-4.633,1.898-6.627
		c0.219-2.006,0.359-3.98-0.425-6.655c-0.413-1.312-1.139-2.567-2.123-3.378c-0.95-0.827-2.266-1.254-3.587-1.388
		c-1.318-0.136-2.575-0.019-3.463,0.098C353.02,247.597,352.485,247.706,352.485,247.706z"/>
	<path style="fill:#231815;" d="M369.588,270.845c-9.61-5.864-5.603-9.712-2.142-6.534c3.462,3.176,7.812,5.153,10.817,7.375
		c3.006,2.221,6.013,4.443,8.722,7.065c2.711,2.622,7.536,8.666,3.483,6.29c-4.052-2.376-6.149-2.687-10.656-6.017
		C375.303,275.69,369.588,270.845,369.588,270.845z"/>
	<path style="fill:#231815;" d="M401.541,280.891c-2.721,0.413-4.641,1.604-6.22,2.204c-1.554,0.651-2.669,0.848-3.321,0.607
		c-1.28-0.441-0.833-2.574,1.924-4.141c2.716-1.51,5.941-2.91,9.38-2.631c1.693,0.118,3.471,0.714,4.848,1.774
		c1.409,1.03,2.382,2.477,2.913,3.85c2.003,5.61,0.323,10.893-1.742,15.126c-1.065,2.199-3.246,5.151-4.95,6.663
		c-1.712,1.52-2.675,1.821-1.344-0.665c1.265-2.535,1.77-4.474,2.277-6.5c0.235-1.011,0.477-2.054,0.753-3.243
		c0.27-1.212,0.571-2.473,0.784-3.974c0.209-1.504,0.258-3.134-0.012-4.548c-0.279-1.413-0.858-2.525-1.653-3.218
		c-0.763-0.73-1.713-1.039-2.439-1.181C402.014,280.875,401.541,280.891,401.541,280.891z"/>
	<path style="fill:#231815;" d="M417.675,316.6c-11.091-13.826-20.026-14.929-3.971,5.604c1.03,1.295,2.03,2.553,3.005,3.78
		c0.956,1.185,1.795,2.268,2.416,3.289c0.63,1.022,1.027,1.957,1.176,2.792c0.159,0.839,0.104,1.598-0.168,2.456
		c-0.543,1.692-1.983,3.386-3.749,4.46c-1.855,1.14-4.179,1.833-6.74,2.258c-5.223,0.745-10.964,1.145-17.306,0.771
		c-6.357-0.382-13.435-1.526-21.343-4.108c-7.914-2.573-15.287-6.256-21.963-10.522c-6.668-4.333-12.449-9.389-17.657-14.708
		c-5.24-5.284-10.239-10.571-15.776-14.853c-5.532-4.316-11.643-7.424-17.817-8.831c-6.074-1.409-10.881-0.224-13.1,1.057
		c-2.269,1.373-2.31,2.422-0.554,2.829c1.759,0.446,5.288,0.232,10.812,1.473c2.763,0.616,6.028,1.663,9.733,3.389
		c3.708,1.719,7.741,4.212,12.253,7.606c4.813,3.631,8.374,6.965,11.628,9.901c3.244,2.954,6.136,5.636,9.495,8.311
		c3.348,2.671,7.049,5.481,12.071,8.417c5.016,2.915,11.284,6.165,19.895,8.895c13.768,4.348,27.317,6.011,40.345,5.233
		c3.32-0.288,6.846-0.973,10.033-2.977c1.572-0.999,2.953-2.283,4.071-3.832c1.093-1.556,1.935-3.416,2.161-5.469
		c0.263-2.066-0.17-4.118-0.876-5.828c-0.707-1.729-1.655-3.164-2.593-4.457c-0.957-1.304-1.877-2.415-2.775-3.553
		C419.474,318.851,418.572,317.723,417.675,316.6z"/>
	<path style="fill:#231815;" d="M290.932,309.574c0.025-6.154,1.066-10.59,2.069-13.522c1.068-2.93,2.159-4.385,2.865-4.814
		c0.731-0.425,1.19,0.186,1.284,1.452c0.116,1.274-0.259,3.163-0.804,5.521c-0.674,2.333-0.962,4.75-1.257,7.125
		c-0.146,2.392-0.274,4.755-0.132,7.058c0.012,2.303,0.365,4.528,0.548,6.657c0.375,2.115,0.566,4.154,0.976,6.041
		c1.341,7.596,3.761,14.963,6.999,22.01c1.485,3.597,4.277,8.767,6.151,12.033c1.889,3.236,2.432,4.856-1,1.133
		c-0.881-0.911-1.626-1.813-2.325-2.669c-0.712-0.85-1.38-1.65-2.023-2.419c-1.171-1.619-2.393-3.041-3.416-4.665
		c-1.047-1.61-2.152-3.276-3.148-5.329c-1.09-2.006-2.06-4.394-3.106-7.294c-2.045-5.831-3.339-12.96-3.688-18.588
		c-0.101-2.822-0.207-5.25-0.091-6.979C290.896,310.597,290.932,309.574,290.932,309.574z"/>
	<path style="fill:#231815;" d="M284.927,357.174c-2.511-1.678-3.896-3.482-4.581-4.858c-0.666-1.407-0.639-2.425-0.335-2.984
		c0.315-0.569,0.946-0.733,1.616-0.547c0.683,0.183,1.341,0.756,1.985,1.635c1.227,1.823,2.979,3.242,4.784,4.275
		c1.79,1.073,3.618,1.796,5.193,2.489c3.162,1.41,6.498,2.298,9.948,2.98c1.719,0.423,4.401,0.86,6.215,1.177
		c1.795,0.304,2.713,0.766,0.363,1.453c-2.351,0.645-4.065,1.073-5.946,1.329c-1.877,0.244-3.948,0.294-6.906-0.404
		c-2.959-0.708-6.204-2.197-8.531-3.688c-1.145-0.779-2.129-1.446-2.768-2.006C285.314,357.491,284.927,357.174,284.927,357.174z"/>
	<path style="fill:#231815;" d="M257.508,363.262c13.313-6.667,19.482-9.723,21.524-9.393c1.963,0.185-0.616,3.249-6.277,6.151
		c-5.639,2.911-11.314,5.743-16.768,8.36c-5.501,2.51-10.824,4.741-15.757,6.163c-9.799,2.965-20.158,4.543-30.453,4.017
		c-2.57-0.232-5.773-0.525-8.872-1.218c-1.558-0.262-3.078-0.678-4.492-1.099c-1.414-0.42-2.741-0.754-3.847-1.237
		c-4.462-1.766-6.032-2.804,0.035-1.532c1.508,0.365,2.948,0.476,4.285,0.657c1.34,0.165,2.594,0.332,3.817,0.347
		c1.215,0.048,2.381,0.092,3.534,0.137c1.151,0.021,2.292-0.052,3.444-0.07c4.609-0.125,9.503-0.461,16.77-1.553
		c7.278-1.063,15.646-3.258,22.069-5.506c1.617-0.525,3.111-1.058,4.432-1.592c1.329-0.51,2.506-0.96,3.483-1.334
		C256.364,363.745,257.508,363.262,257.508,363.262z"/>
	<path style="fill:#231815;" d="M208.877,55.776c-0.77-68.674,3.466-62.946,3.081-34.338c-0.385,28.615,0.385,57.229,0.385,80.121
		c0,22.892,0,45.784-0.385,68.674c-0.385,22.893-1.926,68.662-2.311,40.055c-0.385-28.608-1.156-40.068-1.156-74.392
		C208.491,101.559,208.877,55.776,208.877,55.776z"/>
	<path style="fill:#231815;" d="M204.637,2.194c-1.917,5.949-2.04,17.348-2.568,22.81c-0.547,5.466-0.537,12.964-1.002,16.934
		c-0.464,3.968-0.63,25.95-0.742,30.44c-0.126,4.489-0.15,15.978,0.101,18.486c0.236,2.511,0.272,1.011,0.154,6.002
		c-0.123,4.989-0.421,5.972-0.454,7.47c-0.03,1.497,0.168,6.5,0.168,6.5s0.798,9.83,0.401,11.498
		c-0.95,3.957,0.242,3.502,0.202,5.996c-0.032,2.496-0.643,4.47-0.405,9.471c0.23,4.999,0.194,11.484,0.455,15.984
		c0.258,4.499-0.033,6.984-0.047,10.476c-0.007,2.393,0.004-1.288-0.01,3.494c-0.024,6.983-1.485,6.45-1.79,4.443
		c-0.292-2.004,0.018-6.488-0.271-8.993c-0.292-2.505-0.567-7.506-0.236-11.49c0.326-3.985,0.34-5.981,0.058-7.988
		c-0.278-2.008-0.811-7.022-0.783-9.519c0.029-2.494-0.019-4.419,0.07-5.992c0.404-6.977,0.738-9.457,0.473-11.469
		c-0.262-2.008,0.009-0.999-0.197-5.504c-0.209-4.506-0.465-6.516-0.406-9.51c0.055-2.997-0.194-4.509-0.15-6.506
		c0.047-1.998-0.201-4.008-0.153-6.006c0.042-1.996-0.135-6.507-0.357-9.017c-0.225-2.512-0.01-10.501,0.361-12.482
		c0.36-1.98,0.687-2.965,0.224-6.991c-0.462-4.026-0.779-3.545-0.669-6.54c0.108-2.997,0.738-3.96,0.811-5.955
		c0.075-1.995,0.504-5.969,0.003-8.004c-0.511-2.036-0.723-4.051-0.602-7.046c0.124-2.996,0.476-4.473,0.544-5.971
		c0.069-1.499-0.706-4.055-0.616-6.051c0.092-1.998-0.644-5.556-0.202-8.53c0.444-2.975,1.529-6.901,3.131-9.282
		C201.733,0.968,206.041-2.197,204.637,2.194z"/>
	<path style="fill:#231815;" d="M198.815,181.18c0.007,3.038,0.591,4.507,0.91,8.007c0.316,3.498-0.859,4.973-0.835,9.468
		c0.028,4.494,0.95,7.003,0.95,7.003l1.135-4.971c0,0,0.28-2.988-0.03-5.489c-0.311-2.502,0.863-4.473,0.249-8.476
		c-0.603-4.003-1.194-6.515-0.903-9.003C200.585,175.232,198.808,175.188,198.815,181.18z"/>
	<path style="fill:#231815;" d="M201.628,206.684c-0.567,2.486-2.053,1.967-2.025,4.963c0.022,2.995,0.09,6.988,0.412,8.987
		c0.326,2.001,0.709,7.991,0.709,7.991s1.488,0.512,1.126-3.981c-0.36-4.492-0.345-3.495-0.684-6.492
		c-0.348-2.998,0.214-6.483,0.214-6.483L201.628,206.684z"/>
	<path style="fill:#231815;" d="M166.286,190.647c-8.356-4.456-12.04-6.798-12.562-8.11c-0.554-1.236,2.071-1.17,5.622,0.81
		c7.061,3.926,14.293,7.645,19.505,11.555c5.204,3.877,10.156,8.137,14.431,13.025c4.466,4.801,11.162,15.825,5.834,9.864
		c-2.688-2.933-4.786-4.781-7.018-6.744c-2.236-1.953-4.613-4.029-8.174-7.139c-3.558-3.111-7.89-6.535-11.424-9.056
		c-1.782-1.237-3.313-2.323-4.439-3.036C166.946,191.083,166.286,190.647,166.286,190.647z"/>
	<path style="fill:#231815;" d="M152.566,197.407c-2.446-1.251-4.493-3.092-5.234-5.564c-0.625-2.495,0.185-4.424,1.09-5.692
		c0.941-1.288,2.217-1.925,3.191-1.958c0.98-0.059,1.521,0.351,1.725,0.616c0.422,0.582-0.235,0.837-0.832,1.169
		c-0.305,0.196-0.606,0.403-0.957,0.788c-0.347,0.379-0.737,0.943-1.053,1.674c-0.314,0.725-0.446,1.57-0.293,2.287
		c0.114,0.662,0.578,1.416,1.156,2.061c1.188,1.274,2.904,2.143,4.691,2.857c1.788,0.699,3.71,1.393,5.465,2.147
		c1.764,0.754,3.422,1.554,4.938,2.387c6.061,3.329,11.714,7.463,16.485,12.453c2.412,2.473,5.566,6.584,7.144,9.392
		c1.578,2.816,1.93,4.079-0.769,0.885c-2.777-3.138-4.997-5.07-7.395-7.064c-2.415-1.976-4.988-4.056-8.975-6.987
		c-2.005-1.453-4.237-2.941-6.48-4.319c-2.259-1.35-4.526-2.59-6.567-3.594c-2.036-0.999-3.84-1.772-5.2-2.413
		C153.355,197.89,152.566,197.407,152.566,197.407z"/>
	<path style="fill:#231815;" d="M197.743,216.481c-1.185,1.835-1.659,3.315-2.04,4.362c-0.37,1.052-0.623,1.713-0.961,1.991
		c-0.332,0.279-0.689,0.153-0.959-0.377c-0.293-0.522-0.383-1.462-0.105-2.558c0.614-2.163,1.629-4.146,2.996-5.775
		c1.36-1.624,3.095-2.865,4.882-3.419c3.594-1.174,7.624-0.161,10.277,2.204c1.399,1.136,2.791,3.495,2.987,5.098
		c0.204,1.606-0.025,2.151-0.761,0.424c-0.874-1.692-1.961-2.55-3.093-3.301c-1.155-0.726-2.451-1.404-4.486-1.857
		c-2.047-0.486-4.483-0.029-6.153,1.011c-0.836,0.5-1.479,1.068-1.919,1.487C197.99,216.216,197.743,216.481,197.743,216.481z"/>
	<path style="fill:#231815;" d="M115.314,264.084c-1.557,2.313-3.022,4.361-4.153,6.558c-0.601,1.049-1.189,2.076-1.771,3.093
		c-0.6,0.991-1.193,1.962-1.698,2.997c-0.535,1.01-1.091,1.997-1.684,2.969c-0.582,0.978-1.265,1.9-1.814,2.939
		c-0.59,1.014-1.233,2.023-1.944,3.039c-0.362,0.505-0.731,1.018-1.107,1.543c-0.338,0.544-0.694,1.094-1.071,1.65
		c-3.963,5.531-8.837,15.58-9.862,27.425c-0.591,5.877-0.362,12.042,0.322,17.99c0.17,1.496,0.339,2.979,0.506,4.442
		c0.069,0.759,0.222,1.391,0.334,2.076l0.179,1.006c0.08,0.331,0.196,0.654,0.291,0.981c0.699,2.631,1.958,5.022,3.145,7.234
		c2.517,4.385,6.186,9.313,10.262,14.362c4.038,5.081,8.51,10.285,12.016,15.858c3.315,5.606,6.313,10.796,8.803,15.123
		c2.47,4.316,4.297,7.749,5.238,9.597c3.839,7.32,7.316,13.616,6.395,15.601c-0.443,0.976-1.435,0.083-2.528-1.643
		c-1.137-1.717-2.429-4.258-3.559-6.676c-0.556-1.213-2.328-4.858-5.012-9.629c-2.671-4.779-6.264-10.672-9.86-16.712l-1.34-2.275
		c-0.444-0.709-0.886-1.419-1.328-2.125c-0.93-1.391-1.881-2.76-2.886-4.077c-1.975-2.643-3.995-5.124-5.81-7.387
		c-3.65-4.506-6.419-8.199-7.436-9.884c-0.992-1.713-3.219-4.628-5.56-8.566c-0.576-0.991-1.143-2.057-1.741-3.147
		c-0.499-1.16-1.131-2.285-1.56-3.565c-0.224-0.636-0.449-1.277-0.677-1.923c-0.204-0.657-0.328-1.359-0.494-2.044l-0.232-1.037
		l-0.165-0.948l-0.321-1.88c-0.889-5.06-1.65-10.191-1.803-14.359c-0.208-4.166-0.032-7.342,0.224-8.53
		c0.213-1.191,0.409-2.832,0.791-4.704c0.16-0.939,0.332-1.939,0.509-2.977c0.244-1.024,0.496-2.085,0.751-3.16
		c0.433-2.167,1.177-4.302,1.818-6.311c0.568-2.036,1.465-3.787,2.063-5.276c0.326-0.733,0.641-1.558,1.035-2.404
		c0.428-0.832,0.882-1.716,1.355-2.634c0.466-0.927,0.95-1.89,1.444-2.874c0.537-0.958,1.147-1.899,1.722-2.872
		c0.581-0.973,1.166-1.951,1.745-2.921c0.568-0.981,1.275-1.838,1.881-2.746c1.28-1.753,2.36-3.561,3.503-4.966
		c1.089-1.386,2.624-3.024,4.315-4.697c1.728-1.629,3.765-3.105,5.586-4.522C118.029,258.15,117.014,261.589,115.314,264.084z"/>
	<path style="fill:#231815;" d="M175.001,374.964c-1.156-11.058-2.851-19.038-3.739-24.64c-0.942-5.595-1.271-8.79-1.011-10.073
		c0.451-2.564,3.226,2.547,5.076,11.866c1.816,9.305,3.365,18.707,3.849,27.793c0.502,9.061-0.08,17.833-1.958,25.363
		c-1.815,7.524-4.689,14.85-8.818,21.466c-4.031,6.649-9.552,12.489-15.724,17.031c-3.04,2.306-6.924,4.913-10.485,7.754
		c-1.776,1.423-3.433,2.939-4.875,4.476c-1.424,1.552-2.545,3.169-3.386,4.677c-0.374,0.768-0.714,1.499-0.982,2.172
		c-0.225,0.696-0.425,1.315-0.596,1.841c-0.215,1.085-0.402,1.815-0.542,2.026c-0.14,0.21-0.237-0.1-0.272-1.097
		c-0.02-0.498-0.044-1.17,0.124-2.009c0.074-0.419,0.125-0.896,0.252-1.401c0.156-0.498,0.327-1.042,0.513-1.635
		c1.806-4.656,4.697-7.807,7.33-10.495c2.68-2.689,5.321-4.926,7.997-7.219c2.686-2.291,5.401-4.606,8.155-7.503
		c2.761-2.911,5.616-6.443,8.453-11.079c2.87-4.619,5.277-10.059,7.044-15.598c1.753-5.548,2.799-11.2,3.328-16.212
		c0.506-5.029,0.554-9.42,0.475-12.537C175.134,376.813,175.001,374.964,175.001,374.964z"/>
	<path style="fill:#231815;" d="M123.241,416.803c3.586-3.143,5.796-5.798,5.378-7.248c-0.216-0.695-1.101-0.99-2.833-0.571
		c-1.73,0.402-4.251,1.677-7.282,4.319c-3.06,2.717-5.284,5.583-7.069,8.45c-1.787,2.872-3.202,5.741-4.448,8.78
		c-2.529,6.084-4.601,12.713-8.095,21.842c-1.677,4.588-3.105,9.439-2.606,14.398c0.262,2.45,1.041,4.864,2.237,6.935
		c1.163,2.099,2.633,3.895,4.084,5.57c1.464,1.61,2.897,3.185,4.294,4.723c0.682,0.756,1.321,1.511,1.927,2.264
		c0.517,0.693,0.894,1.31,1.136,2.073c0.513,1.473,0.598,3.188,0.582,4.953c-0.012,1.765-0.096,3.562-0.075,5.335
		c0.026,3.486,0.948,6.08,1.908,7.301c0.975,1.245,1.848,1.236,2.368,0.14c0.511-1.109,0.669-3.203,0.832-6.609
		c0.066-1.72,0.193-3.786,0.096-6.5c-0.076-1.373-0.206-2.933-0.725-4.701c-0.257-0.875-0.631-1.811-1.174-2.698
		c-0.271-0.447-0.549-0.896-0.914-1.294l-0.526-0.611c-0.174-0.194-0.323-0.316-0.488-0.478c-2.773-2.6-4.961-4.33-6.711-6.071
		c-1.749-1.72-3.129-3.352-4.207-5.279c-2.158-3.79-2.887-9.052,0.528-18.512c2.77-7.602,5.83-14.689,9.382-20.876
		C114.374,426.218,118.563,420.949,123.241,416.803z"/>
	<path style="fill:#231815;" d="M118.374,484.6c-1.852-4.823-2.074-7.274-1.416-8.159c0.626-0.862,2.051-0.01,2.667,2.172
		c1.207,4.326,3.101,8.463,3.774,12.036c0.683,3.544,1.122,7.159,0.922,10.773c-0.131,3.67-2.01,10.626-2.243,6.221
		c-0.322-4.372-1.106-6.065-1.663-11.174c-0.302-2.558-0.738-5.534-1.186-7.862C118.775,486.283,118.374,484.6,118.374,484.6z"/>
	<path style="fill:#231815;" d="M125.765,482.464c-2.271-4.576-3.104-6.689-2.684-7.766c0.199-0.505,0.676-0.645,1.274-0.38
		c0.598,0.261,1.334,0.927,1.834,1.996c2.036,4.194,4.144,8.326,4.951,11.969c0.789,3.604,1.248,7.321,0.82,11.025
		c-0.183,1.853-0.952,4.586-1.779,6.138c-0.861,1.555-1.46,1.994-1.156-0.133c0.227-2.154,0.082-3.683-0.122-5.293
		c-0.187-1.608-0.384-3.306-0.679-5.844c-0.27-2.546-0.763-5.512-1.334-7.801C126.321,484.087,125.765,482.464,125.765,482.464z"/>
	<path style="fill:#231815;" d="M135.2,472.075c-1.813-6.208-1.734-9.29-0.812-10.296c0.885-0.99,2.531,0.255,3.022,3.02
		c0.975,5.479,2.919,10.769,3.484,15.228c0.572,4.434,0.914,8.921,0.497,13.389c-0.316,4.527-2.843,13.139-3.001,7.652
		c-0.258-5.455-1.209-7.599-1.592-14.017c-0.224-3.212-0.556-6.959-0.911-9.9C135.527,474.211,135.2,472.075,135.2,472.075z"/>
	<path style="fill:#231815;" d="M195.77,408.156c2.235-9.577,2.442-16.804,2.675-21.794c0.181-5.007,0.245-7.858,0.691-8.98
		c0.428-1.124,1.098-0.493,1.773,1.529c0.67,2.014,1.246,5.446,1.137,9.757c-0.206,8.603-1.406,17.187-3.882,25.051
		c-1.248,3.924-2.826,7.649-4.681,11.058c-0.455,0.858-0.918,1.701-1.441,2.497c-0.525,0.803-0.958,1.613-1.55,2.38
		c-1.112,1.573-2.321,2.972-3.545,4.245c-4.93,5.066-10.498,8.936-15.233,13.395c-2.366,2.216-4.535,4.56-6.194,7.163
		c-0.839,1.297-1.518,2.667-2.06,4.086c-0.217,0.714-0.523,1.45-0.688,2.151c-0.175,0.698-0.271,1.42-0.319,2.16
		c-0.268,2.956,0.743,6.974,1.438,11.174c0.682,4.141,1.057,8.32,0.938,11.52c-0.098,3.206-0.611,5.387-0.878,5.727
		c-0.325,0.34-0.24-1.121-0.533-5.226c-0.353-4.109-1.179-7.549-2.021-10.718c-0.804-3.161-1.916-5.987-2.528-9.347
		c-0.296-1.672-0.437-3.48-0.209-5.397c0.105-0.979,0.363-1.884,0.616-2.817c0.212-0.954,0.583-1.874,0.986-2.819
		c1.586-3.795,4.382-7.514,8.188-11.079c3.783-3.626,8.2-6.911,12.111-10.375c1.973-1.719,3.751-3.519,5.303-5.349
		c0.735-0.927,1.458-1.847,2.093-2.859c0.676-0.967,1.278-1.947,1.826-2.917c2.25-3.847,3.705-7.449,4.662-10.028
		c0.433-1.309,0.777-2.352,1.013-3.068C195.66,408.55,195.77,408.156,195.77,408.156z"/>
	<path style="fill:#231815;" d="M152.694,477.07c-2.05-8.851,1.622-8.764,1.965-4.928c0.294,3.826,1.48,7.529,1.823,10.587
		c0.345,3.051,0.623,6.114,0.505,9.195c-0.105,3.091-1.182,9.234-1.701,5.449c-0.541-3.775-1.298-5.242-1.693-9.755
		C153.208,483.102,152.694,477.07,152.694,477.07z"/>
	<path style="fill:#231815;" d="M144.689,478.537c-0.336-2.367-0.134-4.197,0.306-5.391c0.39-1.203,1.029-1.756,1.437-1.881
		c0.44-0.124,0.792,0.168,0.974,0.662c0.09,0.247,0.136,0.547,0.124,0.885c0.019,0.352-0.013,0.745-0.118,1.177
		c-0.688,3.582,0.582,7.318,1.034,10.29c0.474,3.005,1.017,6.059,1.095,9.188c0.145,3.169-0.901,9.377-1.468,5.57
		c-0.627-3.774-1.506-5.163-2.216-9.679c-0.365-2.261-0.739-4.939-0.943-7.083C144.708,480.132,144.689,478.537,144.689,478.537z"/>
	<path style="fill:#231815;" d="M235.757,257.488c-0.472-26.966,0.72-39.33,1.662-42.113c0.98-2.784,1.768,3.963,1.477,15.173
		c-0.576,22.437,0.42,44.889,0.561,62.851c0.141,17.967,0.307,35.942-0.157,53.921c-0.106,4.495-0.329,10.113-0.596,15.656
		c-0.159,2.772-0.316,5.525-0.464,8.113c-0.083,1.282-0.136,2.582-0.446,3.82c-0.305,1.227-0.9,2.409-1.878,3.103
		c-0.947,0.668-2.062,0.894-2.987,0.671c-0.464-0.11-0.869-0.355-1.146-0.65c-0.267-0.31-0.319-0.712-0.459-1.003
		c-0.466-1.245-0.736-2.067-0.75-2.334c-0.014-0.265,0.23,0.027,0.789,1.013c0.137,0.249,0.296,0.538,0.48,0.872
		c0.089,0.168,0.185,0.347,0.286,0.538c0.085,0.122,0.11,0.279,0.255,0.361c0.429,0.397,1.45,0.475,2.44-0.122
		c0.97-0.563,1.41-1.674,1.607-2.836c0.187-1.169,0.143-2.409,0.14-3.641c-0.023-2.446-0.046-4.743-0.067-6.953
		c-0.089-4.418-0.17-8.487-0.255-12.696c-0.19-8.417-0.382-17.393-0.449-30.857c-0.038-13.473-0.083-29.192-0.118-41.543
		C235.726,266.475,235.757,257.488,235.757,257.488z"/>
	<path style="fill:#231815;" d="M224.47,260.464c-0.473-26.33,0.72-38.403,1.662-41.119c0.98-2.718,1.768,3.87,1.477,14.814
		c-0.576,21.908,0.421,43.828,0.561,61.367c0.142,17.543,0.307,35.094-0.158,52.651c-0.106,4.388-0.329,9.873-0.597,15.287
		c-0.158,2.705-0.316,5.394-0.464,7.922c-0.081,1.249-0.143,2.529-0.47,3.74c-0.322,1.192-0.957,2.349-1.943,2.974
		c-0.949,0.614-2.036,0.809-2.937,0.58c-0.453-0.115-0.845-0.353-1.118-0.641c-0.255-0.307-0.315-0.696-0.452-0.979
		c-0.464-1.212-0.733-2.014-0.747-2.275c-0.013-0.261,0.228,0.021,0.786,0.979c0.136,0.24,0.296,0.522,0.478,0.845
		c0.089,0.164,0.184,0.338,0.285,0.523c0.086,0.115,0.107,0.273,0.25,0.35c0.423,0.379,1.409,0.473,2.398-0.079
		c0.975-0.522,1.43-1.562,1.643-2.689c0.202-1.125,0.161-2.331,0.157-3.534c-0.023-2.388-0.046-4.631-0.067-6.789
		c-0.088-4.315-0.169-8.287-0.253-12.397c-0.19-8.219-0.38-16.981-0.447-30.128c-0.038-13.155-0.083-28.503-0.118-40.563
		C224.439,269.238,224.47,260.464,224.47,260.464z"/>
	<path style="fill:#231815;" d="M214.978,327.633c-1.063-12.146-0.835-17.77-0.02-19.132c0.784-1.358,2.06,1.601,2.281,6.719
		c0.438,10.219,1.654,20.401,1.748,28.612c0.073,8.199,0.002,16.425-1.292,24.644c-0.239,1.422-0.564,3.087-1.075,4.816
		c-0.261,0.866-0.556,1.744-1.009,2.632c-0.241,0.443-0.49,0.899-0.987,1.355c-0.265,0.219-0.63,0.465-1.138,0.492
		c-0.506,0.013-0.881-0.206-1.141-0.407l1.064-0.084c-0.6,0.483-1.143,0.799-1.804,1.079c-0.724,0.303-1.459,0.42-2.042,0.286
		c-0.864-1.082-1.202-1.917-1.416-2.576c-0.208-0.671-0.224-1.143-0.167-1.324c0.059-0.182,0.183-0.081,0.418,0.323
		c0.124,0.2,0.292,0.471,0.509,0.821c0.115,0.173,0.245,0.365,0.4,0.569l0.236,0.307l0.189,0.216l0.309,0.312
		c0.396,0.019,0.704-0.168,1.027-0.377c0.414-0.267,0.814-0.628,1.067-0.912l1.271-0.1l-0.048,0.274l-0.141-0.289l0.042-0.073
		c0.113-0.155,0.268-0.493,0.376-0.832c0.231-0.692,0.376-1.468,0.494-2.228c0.233-1.534,0.348-3.079,0.451-4.713
		c0.189-3.273,0.309-6.926,0.468-12.013c0.19-6.063,0.218-13.167,0.141-18.751C215.115,331.696,214.978,327.633,214.978,327.633z"/>
	<path style="fill:#231815;" d="M213.178,237.11c-0.295-14.127,0.739-20.589,1.671-22.037c0.946-1.45,1.829,2.093,1.551,7.959
		c-0.557,11.742,0.196,23.498,0.223,32.896c0.025,9.399,0.095,18.803-0.209,28.211c-0.3,9.41-1.688,28.23-2.17,16.478
		c-0.481-11.751-1.307-16.452-1.406-30.561c-0.048-7.058,0.016-15.294,0.115-21.766C213.083,241.817,213.178,237.11,213.178,237.11z
		"/>
	<path style="fill:#231815;" d="M201.895,260.87c-0.473-26.245,0.72-38.278,1.662-40.984c0.98-2.708,1.768,3.858,1.477,14.767
		c-0.576,21.836,0.421,43.684,0.561,61.164c0.141,17.485,0.307,34.979-0.158,52.476c-0.106,4.375-0.329,9.842-0.597,15.238
		c-0.159,2.696-0.316,5.376-0.464,7.895c-0.081,1.245-0.144,2.522-0.474,3.728c-0.324,1.188-0.965,2.342-1.951,2.957
		c-0.949,0.607-2.032,0.797-2.929,0.566c-0.452-0.115-0.842-0.353-1.114-0.639c-0.254-0.306-0.314-0.693-0.451-0.975
		c-0.464-1.207-0.733-2.008-0.747-2.267c-0.013-0.259,0.228,0.021,0.785,0.973c0.136,0.24,0.295,0.522,0.478,0.844
		c0.089,0.162,0.184,0.335,0.285,0.52c0.086,0.113,0.106,0.271,0.25,0.349c0.422,0.376,1.403,0.473,2.392-0.073
		c0.976-0.517,1.433-1.547,1.647-2.669c0.204-1.119,0.163-2.319,0.16-3.519c-0.024-2.38-0.046-4.616-0.067-6.767
		c-0.088-4.3-0.169-8.259-0.253-12.355c-0.19-8.192-0.38-16.926-0.447-30.028c-0.038-13.112-0.083-28.409-0.118-40.43
		C201.864,269.615,201.895,260.87,201.895,260.87z"/>
	<path style="fill:#231815;" d="M190.608,264.823c-0.473-25.4,0.72-37.047,1.662-39.665c0.98-2.62,1.768,3.735,1.477,14.292
		c-0.576,21.131,0.422,42.275,0.562,59.194c0.142,16.92,0.307,33.852-0.159,50.788c-0.107,4.233-0.33,9.526-0.599,14.747
		c-0.159,2.61-0.316,5.203-0.464,7.64c-0.083,1.209-0.15,2.455-0.513,3.623c-0.344,1.152-1.052,2.242-2.035,2.777
		c-0.945,0.541-1.993,0.689-2.857,0.45c-0.438-0.118-0.811-0.349-1.076-0.626c-0.237-0.303-0.309-0.669-0.441-0.944
		c-0.462-1.164-0.73-1.936-0.743-2.189c-0.013-0.252,0.227,0.015,0.781,0.929c0.135,0.231,0.293,0.499,0.475,0.809
		c0.089,0.155,0.183,0.322,0.284,0.499l0.243,0.337c0.412,0.35,1.349,0.469,2.332-0.024c0.974-0.465,1.46-1.398,1.694-2.47
		c0.224-1.063,0.193-2.212,0.188-3.373c-0.024-2.303-0.046-4.467-0.068-6.548c-0.088-4.161-0.168-7.994-0.251-11.957
		c-0.191-7.928-0.379-16.381-0.446-29.06c-0.038-12.69-0.083-27.494-0.118-39.127C190.576,273.288,190.608,264.823,190.608,264.823z
		"/>
	<path style="fill:#231815;" d="M179.064,295.581c-0.689-18.977,0.693-27.698,1.636-29.616c1.009-1.926,1.717,2.826,1.404,10.676
		c-0.618,15.735,0.73,31.489,0.968,44.124c0.244,12.635,0.366,25.331-0.671,37.987c-0.146,1.578-0.311,3.357-0.485,5.226
		c-0.236,1.863-0.484,3.819-0.73,5.762c-0.231,1.942-0.601,3.859-0.892,5.661c-0.077,0.45-0.154,0.893-0.228,1.327
		c-0.085,0.359-0.134,1.07-0.287,1.503l-0.11,0.35l-0.311,0.228c-0.218,0.127-0.429,0.264-0.669,0.317
		c-0.464,0.151-0.952,0.137-1.383,0.03c-1.729-0.475-2.412-1.716-2.825-2.532c-0.378-0.869-0.385-1.485-0.343-1.662
		c0.061-0.188,0.19,0.045,0.53,0.683c0.167,0.32,0.43,0.726,0.822,1.17c0.383,0.42,0.981,0.936,1.668,1.124
		c0.276,0.076,0.577,0.083,0.835-0.006c0.223-0.103,0.563-0.231,0.492-0.535c0.055-0.792,0.108-1.558,0.159-2.3
		c0.114-1.711,0.25-3.313,0.311-4.862c0.103-3.099,0.253-5.941,0.264-8.892c0.136-5.893,0.126-12.177,0.191-21.606
		c0.044-9.435-0.119-20.465-0.228-29.147C179.115,301.901,179.064,295.581,179.064,295.581z"/>
	<path style="fill:#231815;" d="M179.525,233.932c-0.679-11.701,3.548-10.627,3.126-5.781c-0.423,4.852,0.309,9.722,0.279,13.606
		c-0.03,3.884-0.061,7.768-0.476,11.654c-0.415,3.881-2.018,11.663-2.365,6.803c-0.347-4.864-1.102-6.816-1.057-12.656
		C179.078,241.716,179.525,233.932,179.525,233.932z"/>
	<path style="fill:#231815;" d="M256.525,265.698c4.506-0.192,6.382,1.355,6.613,2.564c0.237,1.242-1.007,2.277-2.687,1.809
		c-3.424-0.951-6.99-0.072-9.726,0.022c-2.771,0.083-5.511,0.337-8.338,0.307c-2.78-0.124-8.873-0.535-5.496-1.918
		c3.43-1.319,4.748-2.586,9.212-3.088c2.232-0.224,4.856-0.204,6.902-0.063C255.053,265.479,256.525,265.698,256.525,265.698z"/>
	<path style="fill:#231815;" d="M258.14,300.581c4.922-1.055,7.342-0.389,8.075,0.705c0.726,1.075-0.337,2.528-2.514,2.598
		c-4.321,0.137-8.507,1.526-11.98,1.719c-3.454,0.198-6.93,0.274-10.373-0.291c-3.483-0.514-10.11-3.012-5.846-3.223
		c4.244-0.264,5.935-1.207,10.932-1.263c2.505-0.042,5.428-0.089,7.727-0.127C256.464,300.631,258.14,300.581,258.14,300.581z"/>
	<path style="fill:#231815;" d="M162.7,274.698c17.271-2.713,16.362,2.881,9.077,3.103c-7.286,0.222-14.425,1.93-20.214,2.504
		c-2.895,0.288-5.79,0.575-8.691,0.8c-2.903,0.241-5.833,0.338-8.61,0.505c-1.399,0.088-3.126,0.204-4.814,0.466
		c-1.687,0.258-3.317,0.719-4.577,1.212c-1.262,0.481-2.151,0.967-2.466,0.887c-0.283-0.039-0.049-0.757,1.46-2.012
		c3.107-2.383,5.766-3.339,8.491-4.208c2.776-0.83,5.718-1.307,10.031-1.745C151.072,275.351,162.7,274.698,162.7,274.698z"/>
	<path style="fill:#231815;" d="M128.839,286.857c3.814-1.154,5.745-0.377,6.158,0.362c0.429,0.783-0.446,1.653-1.962,1.657
		c-3.1,0.013-5.929,1.474-8.158,2.325c-2.268,0.85-4.434,1.902-6.668,2.921c-2.245,0.888-6.965,3.218-4.741,0.914
		c1.145-1.146,1.931-2.006,2.845-2.854c0.916-0.844,1.97-1.675,3.743-2.568c1.776-0.89,3.969-1.657,5.724-2.112
		C127.538,287.054,128.839,286.857,128.839,286.857z"/>
	<path style="fill:#231815;" d="M130.579,295.56c4.404-1.07,6.558-0.252,7.014,0.496c0.471,0.79-0.573,1.643-2.335,1.617
		c-3.584-0.051-6.957,1.362-9.617,2.185c-2.694,0.82-5.301,1.851-7.967,2.848c-2.672,0.871-8.238,3.108-5.389,0.789
		c1.454-1.149,2.46-2.009,3.6-2.853c1.141-0.838,2.427-1.656,4.518-2.514c2.093-0.856,4.637-1.576,6.66-1.99
		C129.089,295.729,130.579,295.56,130.579,295.56z"/>
	<path style="fill:#231815;" d="M138.687,300.083c3.994-1.406,6.131-0.429,6.469,0.319c0.373,0.82-0.572,1.595-2.088,1.58
		c-3.162-0.019-6.017,1.724-8.279,2.759c-2.309,1.048-4.533,2.301-6.877,3.436c-2.348,1.067-7.354,3.257-4.924,0.982
		c2.482-2.234,3.215-3.585,6.751-5.637c1.779-1.006,3.983-1.975,5.786-2.565C137.324,300.357,138.687,300.083,138.687,300.083z"/>
	<path style="fill:#231815;" d="M165.324,307.25c-6.343,1.286-6.06-4.208-3.376-3.832c2.685,0.376,5.301-0.741,7.43-0.839
		c2.13-0.097,4.259-0.194,6.411,0.206c2.152,0.399,6.501,2.197,3.863,2.816c-2.639,0.619-3.659,1.662-6.852,1.808
		C169.606,307.555,165.324,307.25,165.324,307.25z"/>
	<path style="fill:#231815;" d="M345.515,270.466c-2.518-1.438-1.567-5.716,0.725-9.396c2.293-3.68,5.928-6.762,8.78-5.811
		c2.851,0.949,2.138,5.703-0.119,9.742C352.645,269.04,348.842,272.367,345.515,270.466z"/>
	<path style="fill:#231815;" d="M393.419,300.646c-4.846-1.818-1.228-8.183,2.864-11.048c4.091-2.865,6.546,0.818,5.728,4.092
		C401.193,296.963,396.692,301.873,393.419,300.646z"/>
	<path style="fill:#231815;" d="M350.517,317.045c-2.105-1.599-0.785-8.643,2.145-4.67
		C355.592,316.349,354.067,319.74,350.517,317.045z"/>
	<path style="fill:#231815;" d="M368.019,325.784c-3.875,0.206-1.866-4.914,1.754-4.615
		C373.394,321.469,372.757,325.533,368.019,325.784z"/>
	<path style="fill:#231815;" d="M315.201,319.121c2.924-7.493,5.8-10.133,6.936-10.368c1.21-0.212,0.987,1.927-0.715,4.65
		c-3.446,5.499-5.116,11.844-6.577,16.734c-1.493,4.917-2.592,9.931-3.598,14.996c-1.191,4.992-2.67,15.516-2.983,8.937
		c-0.111-3.309-0.204-5.649-0.168-8.159c0.045-2.507,0.232-5.194,1.046-9.126c0.821-3.933,2.223-8.415,3.553-11.839
		c0.689-1.705,1.28-3.175,1.764-4.193C314.924,319.728,315.201,319.121,315.201,319.121z"/>
	<path style="fill:#231815;" d="M260.58,273.339c-1.738,7.297-5.56,11.468-8.689,9.035c-3.128-2.432-3.128-2.213-6.256-4.518
		c0,0,0.347,5.561-2.78,0.347c-3.128-5.214-3.476-9.037,1.043-9.732c4.518-0.695,16.335-0.347,16.335-0.347L260.58,273.339z"/>
	<path style="fill:#231815;" d="M155.469,357.557c-10.797,1.963-21.679,9.699-18.256,14.263c3.423,4.564,6.846,6.846,11.981,4.564
		c5.134-2.282,8.558-0.571,14.833,0c6.276,0.571,8.558,2.853,10.269-5.704C176.007,362.121,168.02,355.275,155.469,357.557z"/>
	<path style="fill:#231815;" d="M148.052,388.364c-5.216,8.196,0,14.263,5.705,11.981c5.705-2.282,15.404,0,15.404,0
		s6.276,2.853,6.846-4.564c0.57-7.417,0.57-12.552-5.705-11.41C164.026,385.511,152.046,382.089,148.052,388.364z"/>
	<path style="fill:#231815;" d="M198.257,384.942c-7.987,2.282-9.128,1.14-11.981-1.713c-2.852-2.851-0.413-5.437,4.928-6.141
		c5.341-0.705,8.764,1.577,8.764,1.577L198.257,384.942z"/>
	<path style="fill:#231815;" d="M197.116,394.07c-7.417-2.282-13.122,1.711-13.122,4.564c0,2.853,4.564,5.135,6.846,5.135
		c2.282,0,3.993,5.135,5.705,1.711C198.257,402.056,197.116,394.07,197.116,394.07z"/>
	<path style="fill:#231815;" d="M262.18,222.965c-1.391,1.853-6.487,9.268-10.195,7.877c-3.707-1.39-3.707-2.78-8.341-2.78
		c-4.634,0-4.634-2.781-1.854-5.561c2.78-2.781,7.414-3.243,10.658-3.243C255.693,219.258,262.18,222.965,262.18,222.965z"/>
	<path style="fill:#231815;" d="M169.501,236.866c0.464,7.879-1.853,12.513-6.487,12.975c-4.634,0.464-3.244,4.634-10.658,0
		c-7.414-4.633-3.244-6.487-3.244-6.487L169.501,236.866z"/>
	<path style="fill:#231815;" d="M143.087,309.194c-1.459,1.528-2.61,2.669-3.652,3.312c-1.03,0.65-1.896,0.808-2.509,0.62
		c-1.218-0.368-1.466-2.067,0.058-3.461c1.526-1.379,2.904-2.971,4.523-4.346c1.576-1.383,3.56-2.52,5.46-2.857
		c1.896-0.358,3.993-0.317,5.964,0.479c0.979,0.404,1.883,0.951,2.702,1.774c0.784,0.8,1.337,1.742,1.668,2.723
		c0.338,0.979,0.467,2.282,0.206,3.491c-0.24,1.212-0.89,2.282-1.587,2.824c-0.697,0.556-1.315,0.628-1.529,0.492
		c-0.252-0.167-0.098-0.486,0.204-1.177c0.515-1.465-0.051-2.634-0.651-3.494c-0.325-0.437-0.699-0.824-1.118-1.154
		c-0.206-0.17-0.434-0.304-0.661-0.438c-0.277-0.14-0.583-0.307-0.947-0.431c-1.416-0.587-3.676-0.458-5.321,0.168
		c-0.811,0.291-1.52,0.677-2.02,0.975C143.378,308.991,143.087,309.194,143.087,309.194z"/>
</g>
</svg>
